<svg xmlns="http://www.w3.org/2000/svg" xmlns:xlink="http://www.w3.org/1999/xlink" width="816" zoomAndPan="magnify" viewBox="0 0 612 611.999999" height="816" preserveAspectRatio="xMidYMid meet" version="1.0"><defs><g/><clipPath id="3eda553cc9"><path d="M 206.683594 211.832031 L 395.683594 211.832031 L 395.683594 400.832031 L 206.683594 400.832031 Z M 206.683594 211.832031 " clip-rule="nonzero"/></clipPath></defs><path fill="#6ce5e8" d="M 307.851562 7.355469 C 311.769531 7.355469 315.683594 7.429688 319.597656 7.585938 C 323.511719 7.738281 327.421875 7.96875 331.324219 8.277344 C 335.230469 8.582031 339.125 8.96875 343.015625 9.425781 C 346.90625 9.886719 350.78125 10.425781 354.652344 11.035156 C 358.519531 11.648438 362.375 12.339844 366.214844 13.101562 C 370.058594 13.867188 373.882812 14.707031 377.691406 15.621094 C 381.496094 16.535156 385.285156 17.523438 389.054688 18.585938 C 392.824219 19.648438 396.574219 20.785156 400.296875 21.996094 C 404.023438 23.207031 407.722656 24.488281 411.394531 25.84375 C 415.070312 27.199219 418.71875 28.628906 422.335938 30.125 C 425.953125 31.625 429.542969 33.195312 433.097656 34.832031 C 436.65625 36.472656 440.175781 38.183594 443.667969 39.960938 C 447.15625 41.738281 450.609375 43.582031 454.027344 45.496094 C 457.445312 47.410156 460.824219 49.390625 464.160156 51.4375 C 467.5 53.484375 470.800781 55.59375 474.054688 57.769531 C 477.3125 59.945312 480.523438 62.1875 483.691406 64.488281 C 486.863281 66.789062 489.984375 69.152344 493.058594 71.578125 C 496.132812 74.003906 499.160156 76.488281 502.140625 79.03125 C 505.117188 81.574219 508.042969 84.175781 510.921875 86.832031 C 513.796875 89.492188 516.621094 92.207031 519.386719 94.976562 C 522.15625 97.746094 524.871094 100.566406 527.53125 103.441406 C 530.1875 106.320312 532.789062 109.246094 535.332031 112.222656 C 537.878906 115.203125 540.359375 118.230469 542.785156 121.304688 C 545.210938 124.378906 547.574219 127.503906 549.875 130.671875 C 552.179688 133.839844 554.417969 137.050781 556.59375 140.308594 C 558.769531 143.566406 560.878906 146.863281 562.925781 150.203125 C 564.972656 153.539062 566.953125 156.917969 568.867188 160.335938 C 570.78125 163.753906 572.625 167.207031 574.402344 170.695312 C 576.179688 174.1875 577.890625 177.710938 579.53125 181.265625 C 581.167969 184.824219 582.738281 188.410156 584.238281 192.027344 C 585.738281 195.648438 587.164062 199.292969 588.519531 202.96875 C 589.875 206.640625 591.15625 210.339844 592.367188 214.066406 L 307.851562 306.511719 Z M 307.851562 7.355469 " fill-opacity="1" fill-rule="nonzero"/><path fill="#41b8d5" d="M 592.367188 214.066406 C 593.578125 217.789062 594.714844 221.539062 595.777344 225.308594 C 596.839844 229.078125 597.828125 232.867188 598.742188 236.675781 C 599.660156 240.480469 600.496094 244.308594 601.261719 248.148438 C 602.027344 251.988281 602.714844 255.84375 603.328125 259.710938 C 603.9375 263.582031 604.476562 267.460938 604.9375 271.347656 C 605.394531 275.238281 605.78125 279.132812 606.085938 283.039062 C 606.394531 286.945312 606.625 290.851562 606.777344 294.765625 C 606.933594 298.679688 607.007812 302.59375 607.007812 306.511719 C 607.007812 310.425781 606.933594 314.34375 606.777344 318.253906 C 606.625 322.167969 606.394531 326.078125 606.085938 329.980469 C 605.78125 333.886719 605.394531 337.785156 604.9375 341.671875 C 604.476562 345.5625 603.9375 349.441406 603.328125 353.308594 C 602.714844 357.175781 602.027344 361.03125 601.261719 364.875 C 600.496094 368.714844 599.660156 372.539062 598.742188 376.347656 C 597.828125 380.15625 596.839844 383.945312 595.777344 387.714844 C 594.714844 391.484375 593.578125 395.230469 592.367188 398.957031 C 591.15625 402.679688 589.875 406.378906 588.519531 410.054688 C 587.164062 413.726562 585.738281 417.375 584.238281 420.992188 C 582.738281 424.609375 581.167969 428.199219 579.53125 431.753906 C 577.890625 435.3125 576.179688 438.835938 574.402344 442.324219 C 572.625 445.816406 570.78125 449.269531 568.867188 452.683594 C 566.953125 456.101562 564.972656 459.480469 562.925781 462.820312 C 560.878906 466.160156 558.769531 469.457031 556.59375 472.714844 C 554.417969 475.96875 552.179688 479.183594 549.875 482.351562 C 547.574219 485.519531 545.210938 488.640625 542.785156 491.714844 C 540.359375 494.792969 537.878906 497.820312 535.332031 500.796875 C 532.789062 503.777344 530.1875 506.703125 527.53125 509.578125 C 524.871094 512.453125 522.15625 515.277344 519.390625 518.046875 C 516.621094 520.816406 513.796875 523.53125 510.921875 526.1875 C 508.042969 528.847656 505.117188 531.449219 502.140625 533.992188 C 499.160156 536.535156 496.132812 539.019531 493.058594 541.445312 C 489.984375 543.867188 486.863281 546.230469 483.691406 548.535156 L 307.851562 306.511719 Z M 592.367188 214.066406 " fill-opacity="1" fill-rule="nonzero"/><path fill="#2d8bba" d="M 483.691406 548.535156 C 480.523438 550.835938 477.3125 553.074219 474.054688 555.25 C 470.800781 557.425781 467.5 559.539062 464.160156 561.582031 C 460.824219 563.628906 457.445312 565.609375 454.027344 567.523438 C 450.609375 569.4375 447.15625 571.28125 443.667969 573.0625 C 440.175781 574.839844 436.65625 576.546875 433.097656 578.1875 C 429.542969 579.828125 425.953125 581.398438 422.335938 582.894531 C 418.71875 584.394531 415.070312 585.820312 411.394531 587.175781 C 407.722656 588.53125 404.023438 589.816406 400.296875 591.027344 C 396.574219 592.234375 392.824219 593.371094 389.054688 594.433594 C 385.285156 595.5 381.496094 596.488281 377.691406 597.402344 C 373.882812 598.316406 370.058594 599.15625 366.214844 599.917969 C 362.375 600.683594 358.519531 601.371094 354.652344 601.984375 C 350.78125 602.597656 346.90625 603.132812 343.015625 603.59375 C 339.125 604.054688 335.230469 604.4375 331.324219 604.746094 C 327.421875 605.050781 323.511719 605.28125 319.597656 605.4375 C 315.683594 605.589844 311.769531 605.667969 307.851562 605.667969 C 303.9375 605.667969 300.023438 605.589844 296.109375 605.4375 C 292.195312 605.28125 288.285156 605.050781 284.382812 604.746094 C 280.476562 604.4375 276.582031 604.054688 272.691406 603.59375 C 268.800781 603.132812 264.921875 602.597656 261.054688 601.984375 C 257.1875 601.371094 253.332031 600.683594 249.492188 599.917969 C 245.648438 599.15625 241.824219 598.316406 238.015625 597.402344 C 234.207031 596.488281 230.417969 595.5 226.648438 594.4375 C 222.878906 593.371094 219.132812 592.234375 215.410156 591.027344 C 211.683594 589.816406 207.984375 588.53125 204.308594 587.175781 C 200.636719 585.820312 196.988281 584.394531 193.371094 582.894531 C 189.753906 581.398438 186.164062 579.828125 182.609375 578.1875 C 179.050781 576.546875 175.527344 574.839844 172.039062 573.0625 C 168.550781 571.28125 165.097656 569.4375 161.679688 567.523438 C 158.261719 565.609375 154.882812 563.628906 151.542969 561.582031 C 148.203125 559.539062 144.90625 557.425781 141.652344 555.25 C 138.394531 553.074219 135.179688 550.835938 132.011719 548.535156 L 307.851562 306.511719 Z M 483.691406 548.535156 " fill-opacity="1" fill-rule="nonzero"/><path fill="#2f5f98" d="M 132.011719 548.535156 C 128.84375 546.230469 125.722656 543.867188 122.648438 541.445312 C 119.570312 539.019531 116.542969 536.535156 113.566406 533.992188 C 110.589844 531.449219 107.660156 528.847656 104.785156 526.1875 C 101.910156 523.53125 99.085938 520.816406 96.316406 518.046875 C 93.546875 515.277344 90.832031 512.453125 88.175781 509.578125 C 85.515625 506.703125 82.914062 503.777344 80.371094 500.796875 C 77.828125 497.820312 75.34375 494.792969 72.921875 491.714844 C 70.496094 488.640625 68.132812 485.519531 65.832031 482.351562 C 63.527344 479.183594 61.289062 475.96875 59.113281 472.714844 C 56.9375 469.457031 54.828125 466.160156 52.78125 462.820312 C 50.734375 459.480469 48.753906 456.101562 46.839844 452.683594 C 44.925781 449.269531 43.082031 445.816406 41.300781 442.324219 C 39.523438 438.835938 37.816406 435.3125 36.175781 431.753906 C 34.535156 428.199219 32.96875 424.609375 31.46875 420.992188 C 29.96875 417.375 28.542969 413.726562 27.1875 410.054688 C 25.832031 406.378906 24.546875 402.679688 23.339844 398.957031 C 22.128906 395.230469 20.992188 391.484375 19.929688 387.714844 C 18.863281 383.945312 17.875 380.15625 16.960938 376.347656 C 16.046875 372.539062 15.207031 368.714844 14.445312 364.875 C 13.679688 361.03125 12.992188 357.175781 12.378906 353.308594 C 11.765625 349.441406 11.230469 345.5625 10.769531 341.671875 C 10.308594 337.785156 9.925781 333.886719 9.617188 329.980469 C 9.3125 326.078125 9.082031 322.167969 8.925781 318.253906 C 8.773438 314.34375 8.695312 310.425781 8.695312 306.511719 C 8.695312 302.59375 8.773438 298.679688 8.925781 294.765625 C 9.082031 290.851562 9.3125 286.945312 9.617188 283.039062 C 9.925781 279.132812 10.308594 275.238281 10.769531 271.347656 C 11.230469 267.460938 11.765625 263.582031 12.378906 259.710938 C 12.992188 255.84375 13.679688 251.988281 14.445312 248.148438 C 15.207031 244.308594 16.046875 240.480469 16.960938 236.675781 C 17.875 232.867188 18.863281 229.078125 19.929688 225.308594 C 20.992188 221.539062 22.128906 217.789062 23.339844 214.066406 L 307.851562 306.511719 Z M 132.011719 548.535156 " fill-opacity="1" fill-rule="nonzero"/><path fill="#263e51" d="M 23.339844 214.066406 C 24.546875 210.339844 25.832031 206.640625 27.1875 202.96875 C 28.542969 199.292969 29.96875 195.648438 31.46875 192.03125 C 32.964844 188.410156 34.535156 184.824219 36.175781 181.269531 C 37.8125 177.710938 39.523438 174.1875 41.300781 170.699219 C 43.078125 167.210938 44.925781 163.757812 46.835938 160.339844 C 48.75 156.921875 50.730469 153.546875 52.777344 150.207031 C 54.824219 146.867188 56.933594 143.570312 59.109375 140.3125 C 61.285156 137.058594 63.523438 133.84375 65.824219 130.675781 C 68.128906 127.507812 70.492188 124.386719 72.914062 121.3125 C 75.339844 118.234375 77.824219 115.207031 80.367188 112.230469 C 82.910156 109.253906 85.511719 106.328125 88.167969 103.449219 C 90.828125 100.574219 93.539062 97.753906 96.308594 94.984375 C 99.078125 92.214844 101.902344 89.5 104.777344 86.839844 C 107.652344 84.183594 110.578125 81.582031 113.554688 79.039062 C 116.535156 76.496094 119.558594 74.011719 122.636719 71.585938 C 125.710938 69.160156 128.832031 66.796875 132 64.496094 C 135.167969 62.195312 138.382812 59.957031 141.636719 57.78125 C 144.894531 55.605469 148.191406 53.492188 151.53125 51.445312 C 154.867188 49.398438 158.246094 47.421875 161.664062 45.507812 C 165.078125 43.59375 168.53125 41.746094 172.023438 39.96875 C 175.511719 38.191406 179.035156 36.480469 182.589844 34.839844 C 186.148438 33.203125 189.734375 31.632812 193.351562 30.132812 C 196.96875 28.636719 200.617188 27.207031 204.289062 25.851562 C 207.964844 24.496094 211.664062 23.214844 215.386719 22.003906 C 219.113281 20.792969 222.859375 19.65625 226.628906 18.59375 C 230.394531 17.527344 234.183594 16.539062 237.992188 15.625 C 241.800781 14.710938 245.625 13.871094 249.464844 13.105469 C 253.304688 12.34375 257.160156 11.652344 261.027344 11.042969 C 264.898438 10.429688 268.773438 9.890625 272.664062 9.429688 C 276.554688 8.96875 280.449219 8.585938 284.351562 8.277344 C 288.257812 7.972656 292.167969 7.738281 296.078125 7.585938 C 299.992188 7.429688 303.90625 7.355469 307.824219 7.355469 L 307.851562 306.511719 Z M 23.339844 214.066406 " fill-opacity="1" fill-rule="nonzero"/><g clip-path="url(#3eda553cc9)"><path fill="#000000" d="M 301.183594 211.832031 C 353.375 211.832031 395.683594 254.144531 395.683594 306.332031 C 395.683594 358.523438 353.375 400.832031 301.183594 400.832031 C 248.992188 400.832031 206.683594 358.523438 206.683594 306.332031 C 206.683594 254.144531 248.992188 211.832031 301.183594 211.832031 Z M 301.183594 211.832031 " fill-opacity="1" fill-rule="evenodd"/></g><g fill="#ffffff" fill-opacity="1"><g transform="translate(66.961889, 339.81109)"><g><path d="M 3.203125 0 L 3.203125 -24.625 L 13.71875 -24.625 C 15.226562 -24.625 16.507812 -24.382812 17.5625 -23.90625 C 18.613281 -23.4375 19.40625 -22.757812 19.9375 -21.875 C 20.476562 -20.988281 20.75 -19.945312 20.75 -18.75 C 20.75 -17.65625 20.484375 -16.691406 19.953125 -15.859375 C 19.429688 -15.035156 18.675781 -14.367188 17.6875 -13.859375 L 17.6875 -13.515625 C 19.238281 -13.109375 20.4375 -12.367188 21.28125 -11.296875 C 22.125 -10.234375 22.546875 -8.925781 22.546875 -7.375 C 22.546875 -5.019531 21.832031 -3.203125 20.40625 -1.921875 C 18.988281 -0.640625 16.878906 0 14.078125 0 Z M 12.703125 -14.8125 C 14.972656 -14.8125 16.109375 -15.832031 16.109375 -17.875 C 16.109375 -18.914062 15.828125 -19.691406 15.265625 -20.203125 C 14.703125 -20.710938 13.847656 -20.96875 12.703125 -20.96875 L 8.0625 -20.96875 L 8.0625 -14.8125 Z M 13.59375 -3.859375 C 16.28125 -3.859375 17.625 -5.078125 17.625 -7.515625 C 17.625 -9.960938 16.28125 -11.1875 13.59375 -11.1875 L 8.0625 -11.1875 L 8.0625 -3.859375 Z M 13.59375 -3.859375 "/></g></g></g><g fill="#ffffff" fill-opacity="1"><g transform="translate(91.043061, 339.81109)"><g><path d="M 18.359375 -8.234375 L 6.421875 -8.234375 C 6.554688 -6.617188 7.015625 -5.441406 7.796875 -4.703125 C 8.585938 -3.972656 9.660156 -3.609375 11.015625 -3.609375 C 12.085938 -3.609375 12.953125 -3.804688 13.609375 -4.203125 C 14.273438 -4.597656 14.8125 -5.203125 15.21875 -6.015625 L 15.5625 -6.015625 L 18.671875 -4.03125 C 18.054688 -2.726562 17.132812 -1.671875 15.90625 -0.859375 C 14.6875 -0.046875 13.054688 0.359375 11.015625 0.359375 C 9.097656 0.359375 7.4375 -0.00390625 6.03125 -0.734375 C 4.632812 -1.472656 3.554688 -2.5625 2.796875 -4 C 2.046875 -5.445312 1.671875 -7.207031 1.671875 -9.28125 C 1.671875 -11.394531 2.066406 -13.175781 2.859375 -14.625 C 3.660156 -16.070312 4.738281 -17.148438 6.09375 -17.859375 C 7.457031 -18.578125 8.988281 -18.9375 10.6875 -18.9375 C 13.3125 -18.9375 15.320312 -18.238281 16.71875 -16.84375 C 18.113281 -15.445312 18.8125 -13.40625 18.8125 -10.71875 C 18.8125 -9.738281 18.78125 -8.976562 18.71875 -8.4375 Z M 14.359375 -11.25 C 14.304688 -12.664062 13.972656 -13.695312 13.359375 -14.34375 C 12.753906 -14.988281 11.863281 -15.3125 10.6875 -15.3125 C 8.320312 -15.3125 6.929688 -13.957031 6.515625 -11.25 Z M 14.359375 -11.25 "/></g></g></g><g fill="#ffffff" fill-opacity="1"><g transform="translate(111.234203, 339.81109)"><g><path d="M 12.8125 -4.4375 L 14.03125 -0.984375 C 13.53125 -0.566406 12.894531 -0.238281 12.125 0 C 11.363281 0.238281 10.5 0.359375 9.53125 0.359375 C 7.519531 0.359375 5.992188 -0.1875 4.953125 -1.28125 C 3.910156 -2.382812 3.390625 -3.976562 3.390625 -6.0625 L 3.390625 -14.890625 L 0.5625 -14.890625 L 0.5625 -18.59375 L 3.390625 -18.59375 L 3.390625 -22.21875 L 8.046875 -22.984375 L 8.046875 -18.59375 L 13.328125 -18.59375 L 13.328125 -14.890625 L 8.046875 -14.890625 L 8.046875 -6.40625 C 8.046875 -5.476562 8.238281 -4.800781 8.625 -4.375 C 9.007812 -3.957031 9.566406 -3.75 10.296875 -3.75 C 11.128906 -3.75 11.851562 -3.976562 12.46875 -4.4375 Z M 12.8125 -4.4375 "/></g></g></g><g fill="#ffffff" fill-opacity="1"><g transform="translate(125.666073, 339.81109)"><g><path d="M 12.8125 -4.4375 L 14.03125 -0.984375 C 13.53125 -0.566406 12.894531 -0.238281 12.125 0 C 11.363281 0.238281 10.5 0.359375 9.53125 0.359375 C 7.519531 0.359375 5.992188 -0.1875 4.953125 -1.28125 C 3.910156 -2.382812 3.390625 -3.976562 3.390625 -6.0625 L 3.390625 -14.890625 L 0.5625 -14.890625 L 0.5625 -18.59375 L 3.390625 -18.59375 L 3.390625 -22.21875 L 8.046875 -22.984375 L 8.046875 -18.59375 L 13.328125 -18.59375 L 13.328125 -14.890625 L 8.046875 -14.890625 L 8.046875 -6.40625 C 8.046875 -5.476562 8.238281 -4.800781 8.625 -4.375 C 9.007812 -3.957031 9.566406 -3.75 10.296875 -3.75 C 11.128906 -3.75 11.851562 -3.976562 12.46875 -4.4375 Z M 12.8125 -4.4375 "/></g></g></g><g fill="#ffffff" fill-opacity="1"><g transform="translate(140.097942, 339.81109)"><g><path d="M 18.359375 -8.234375 L 6.421875 -8.234375 C 6.554688 -6.617188 7.015625 -5.441406 7.796875 -4.703125 C 8.585938 -3.972656 9.660156 -3.609375 11.015625 -3.609375 C 12.085938 -3.609375 12.953125 -3.804688 13.609375 -4.203125 C 14.273438 -4.597656 14.8125 -5.203125 15.21875 -6.015625 L 15.5625 -6.015625 L 18.671875 -4.03125 C 18.054688 -2.726562 17.132812 -1.671875 15.90625 -0.859375 C 14.6875 -0.046875 13.054688 0.359375 11.015625 0.359375 C 9.097656 0.359375 7.4375 -0.00390625 6.03125 -0.734375 C 4.632812 -1.472656 3.554688 -2.5625 2.796875 -4 C 2.046875 -5.445312 1.671875 -7.207031 1.671875 -9.28125 C 1.671875 -11.394531 2.066406 -13.175781 2.859375 -14.625 C 3.660156 -16.070312 4.738281 -17.148438 6.09375 -17.859375 C 7.457031 -18.578125 8.988281 -18.9375 10.6875 -18.9375 C 13.3125 -18.9375 15.320312 -18.238281 16.71875 -16.84375 C 18.113281 -15.445312 18.8125 -13.40625 18.8125 -10.71875 C 18.8125 -9.738281 18.78125 -8.976562 18.71875 -8.4375 Z M 14.359375 -11.25 C 14.304688 -12.664062 13.972656 -13.695312 13.359375 -14.34375 C 12.753906 -14.988281 11.863281 -15.3125 10.6875 -15.3125 C 8.320312 -15.3125 6.929688 -13.957031 6.515625 -11.25 Z M 14.359375 -11.25 "/></g></g></g><g fill="#ffffff" fill-opacity="1"><g transform="translate(160.289084, 339.81109)"><g><path d="M 2.671875 0 L 2.671875 -18.578125 L 7.203125 -18.578125 L 7.203125 -15.8125 L 7.5625 -15.75 C 8.007812 -16.78125 8.597656 -17.535156 9.328125 -18.015625 C 10.054688 -18.503906 10.945312 -18.75 12 -18.75 C 13.050781 -18.75 13.851562 -18.566406 14.40625 -18.203125 L 13.609375 -14.1875 L 13.25 -14.109375 C 12.945312 -14.234375 12.65625 -14.320312 12.375 -14.375 C 12.09375 -14.4375 11.753906 -14.46875 11.359375 -14.46875 C 10.054688 -14.46875 9.0625 -14.007812 8.375 -13.09375 C 7.6875 -12.175781 7.34375 -10.707031 7.34375 -8.6875 L 7.34375 0 Z M 2.671875 0 "/></g></g></g><g fill="#ffffff" fill-opacity="1"><g transform="translate(37.067359, 387.811088)"><g><path d="M 10.796875 0.359375 C 8.972656 0.359375 7.375 -0.015625 6 -0.765625 C 4.625 -1.515625 3.554688 -2.609375 2.796875 -4.046875 C 2.046875 -5.492188 1.671875 -7.238281 1.671875 -9.28125 C 1.671875 -11.320312 2.046875 -13.066406 2.796875 -14.515625 C 3.554688 -15.960938 4.625 -17.0625 6 -17.8125 C 7.375 -18.5625 8.972656 -18.9375 10.796875 -18.9375 C 12.617188 -18.9375 14.21875 -18.5625 15.59375 -17.8125 C 16.96875 -17.0625 18.035156 -15.960938 18.796875 -14.515625 C 19.566406 -13.066406 19.953125 -11.320312 19.953125 -9.28125 C 19.953125 -7.238281 19.566406 -5.492188 18.796875 -4.046875 C 18.035156 -2.609375 16.96875 -1.515625 15.59375 -0.765625 C 14.21875 -0.015625 12.617188 0.359375 10.796875 0.359375 Z M 10.796875 -3.609375 C 13.679688 -3.609375 15.125 -5.5 15.125 -9.28125 C 15.125 -11.25 14.753906 -12.6875 14.015625 -13.59375 C 13.273438 -14.507812 12.203125 -14.96875 10.796875 -14.96875 C 7.910156 -14.96875 6.46875 -13.070312 6.46875 -9.28125 C 6.46875 -5.5 7.910156 -3.609375 10.796875 -3.609375 Z M 10.796875 -3.609375 "/></g></g></g><g fill="#ffffff" fill-opacity="1"><g transform="translate(58.656214, 387.811088)"><g><path d="M 8.5 0.359375 C 6.414062 0.359375 4.875 -0.207031 3.875 -1.34375 C 2.882812 -2.488281 2.390625 -4.128906 2.390625 -6.265625 L 2.390625 -18.578125 L 7.0625 -18.578125 L 7.0625 -6.859375 C 7.0625 -5.722656 7.304688 -4.894531 7.796875 -4.375 C 8.285156 -3.851562 9.039062 -3.59375 10.0625 -3.59375 C 11.351562 -3.59375 12.359375 -4.015625 13.078125 -4.859375 C 13.796875 -5.703125 14.15625 -7.035156 14.15625 -8.859375 L 14.15625 -18.578125 L 18.8125 -18.578125 L 18.8125 0 L 14.328125 0 L 14.328125 -2.734375 L 13.984375 -2.8125 C 13.390625 -1.75 12.660156 -0.953125 11.796875 -0.421875 C 10.941406 0.0976562 9.84375 0.359375 8.5 0.359375 Z M 8.5 0.359375 "/></g></g></g><g fill="#ffffff" fill-opacity="1"><g transform="translate(80.144029, 387.811088)"><g><path d="M 12.8125 -4.4375 L 14.03125 -0.984375 C 13.53125 -0.566406 12.894531 -0.238281 12.125 0 C 11.363281 0.238281 10.5 0.359375 9.53125 0.359375 C 7.519531 0.359375 5.992188 -0.1875 4.953125 -1.28125 C 3.910156 -2.382812 3.390625 -3.976562 3.390625 -6.0625 L 3.390625 -14.890625 L 0.5625 -14.890625 L 0.5625 -18.59375 L 3.390625 -18.59375 L 3.390625 -22.21875 L 8.046875 -22.984375 L 8.046875 -18.59375 L 13.328125 -18.59375 L 13.328125 -14.890625 L 8.046875 -14.890625 L 8.046875 -6.40625 C 8.046875 -5.476562 8.238281 -4.800781 8.625 -4.375 C 9.007812 -3.957031 9.566406 -3.75 10.296875 -3.75 C 11.128906 -3.75 11.851562 -3.976562 12.46875 -4.4375 Z M 12.8125 -4.4375 "/></g></g></g><g fill="#ffffff" fill-opacity="1"><g transform="translate(94.575898, 387.811088)"><g><path d="M 10.828125 0.359375 C 9.035156 0.359375 7.445312 -0.015625 6.0625 -0.765625 C 4.6875 -1.515625 3.609375 -2.613281 2.828125 -4.0625 C 2.054688 -5.507812 1.671875 -7.25 1.671875 -9.28125 C 1.671875 -11.320312 2.054688 -13.066406 2.828125 -14.515625 C 3.609375 -15.960938 4.679688 -17.0625 6.046875 -17.8125 C 7.421875 -18.5625 8.988281 -18.9375 10.75 -18.9375 C 14.664062 -18.9375 17.175781 -17.515625 18.28125 -14.671875 L 15.078125 -12.375 L 14.71875 -12.375 C 14.34375 -13.257812 13.847656 -13.910156 13.234375 -14.328125 C 12.617188 -14.753906 11.789062 -14.96875 10.75 -14.96875 C 9.394531 -14.96875 8.34375 -14.5 7.59375 -13.5625 C 6.84375 -12.632812 6.46875 -11.207031 6.46875 -9.28125 C 6.46875 -7.375 6.847656 -5.953125 7.609375 -5.015625 C 8.378906 -4.078125 9.453125 -3.609375 10.828125 -3.609375 C 11.835938 -3.609375 12.691406 -3.878906 13.390625 -4.421875 C 14.097656 -4.960938 14.601562 -5.742188 14.90625 -6.765625 L 15.265625 -6.8125 L 18.578125 -4.984375 C 18.109375 -3.410156 17.234375 -2.125 15.953125 -1.125 C 14.679688 -0.132812 12.972656 0.359375 10.828125 0.359375 Z M 10.828125 0.359375 "/></g></g></g><g fill="#ffffff" fill-opacity="1"><g transform="translate(113.722961, 387.811088)"><g><path d="M 10.796875 0.359375 C 8.972656 0.359375 7.375 -0.015625 6 -0.765625 C 4.625 -1.515625 3.554688 -2.609375 2.796875 -4.046875 C 2.046875 -5.492188 1.671875 -7.238281 1.671875 -9.28125 C 1.671875 -11.320312 2.046875 -13.066406 2.796875 -14.515625 C 3.554688 -15.960938 4.625 -17.0625 6 -17.8125 C 7.375 -18.5625 8.972656 -18.9375 10.796875 -18.9375 C 12.617188 -18.9375 14.21875 -18.5625 15.59375 -17.8125 C 16.96875 -17.0625 18.035156 -15.960938 18.796875 -14.515625 C 19.566406 -13.066406 19.953125 -11.320312 19.953125 -9.28125 C 19.953125 -7.238281 19.566406 -5.492188 18.796875 -4.046875 C 18.035156 -2.609375 16.96875 -1.515625 15.59375 -0.765625 C 14.21875 -0.015625 12.617188 0.359375 10.796875 0.359375 Z M 10.796875 -3.609375 C 13.679688 -3.609375 15.125 -5.5 15.125 -9.28125 C 15.125 -11.25 14.753906 -12.6875 14.015625 -13.59375 C 13.273438 -14.507812 12.203125 -14.96875 10.796875 -14.96875 C 7.910156 -14.96875 6.46875 -13.070312 6.46875 -9.28125 C 6.46875 -5.5 7.910156 -3.609375 10.796875 -3.609375 Z M 10.796875 -3.609375 "/></g></g></g><g fill="#ffffff" fill-opacity="1"><g transform="translate(135.311816, 387.811088)"><g><path d="M 2.671875 0 L 2.671875 -18.578125 L 7.15625 -18.578125 L 7.15625 -16.09375 L 7.515625 -16.015625 C 8.117188 -17.015625 8.828125 -17.75 9.640625 -18.21875 C 10.453125 -18.695312 11.492188 -18.9375 12.765625 -18.9375 C 14.171875 -18.9375 15.300781 -18.65625 16.15625 -18.09375 C 17.007812 -17.539062 17.632812 -16.734375 18.03125 -15.671875 L 18.375 -15.671875 C 18.945312 -16.773438 19.6875 -17.59375 20.59375 -18.125 C 21.5 -18.664062 22.625 -18.9375 23.96875 -18.9375 C 27.820312 -18.9375 29.75 -16.789062 29.75 -12.5 L 29.75 0 L 25.078125 0 L 25.078125 -11.90625 C 25.078125 -13 24.863281 -13.785156 24.4375 -14.265625 C 24.007812 -14.753906 23.328125 -15 22.390625 -15 C 19.828125 -15 18.546875 -13.285156 18.546875 -9.859375 L 18.546875 0 L 13.875 0 L 13.875 -11.90625 C 13.875 -13 13.65625 -13.785156 13.21875 -14.265625 C 12.789062 -14.753906 12.109375 -15 11.171875 -15 C 9.960938 -15 9.019531 -14.59375 8.34375 -13.78125 C 7.675781 -12.976562 7.34375 -11.703125 7.34375 -9.953125 L 7.34375 0 Z M 2.671875 0 "/></g></g></g><g fill="#ffffff" fill-opacity="1"><g transform="translate(167.442499, 387.811088)"><g><path d="M 18.359375 -8.234375 L 6.421875 -8.234375 C 6.554688 -6.617188 7.015625 -5.441406 7.796875 -4.703125 C 8.585938 -3.972656 9.660156 -3.609375 11.015625 -3.609375 C 12.085938 -3.609375 12.953125 -3.804688 13.609375 -4.203125 C 14.273438 -4.597656 14.8125 -5.203125 15.21875 -6.015625 L 15.5625 -6.015625 L 18.671875 -4.03125 C 18.054688 -2.726562 17.132812 -1.671875 15.90625 -0.859375 C 14.6875 -0.046875 13.054688 0.359375 11.015625 0.359375 C 9.097656 0.359375 7.4375 -0.00390625 6.03125 -0.734375 C 4.632812 -1.472656 3.554688 -2.5625 2.796875 -4 C 2.046875 -5.445312 1.671875 -7.207031 1.671875 -9.28125 C 1.671875 -11.394531 2.066406 -13.175781 2.859375 -14.625 C 3.660156 -16.070312 4.738281 -17.148438 6.09375 -17.859375 C 7.457031 -18.578125 8.988281 -18.9375 10.6875 -18.9375 C 13.3125 -18.9375 15.320312 -18.238281 16.71875 -16.84375 C 18.113281 -15.445312 18.8125 -13.40625 18.8125 -10.71875 C 18.8125 -9.738281 18.78125 -8.976562 18.71875 -8.4375 Z M 14.359375 -11.25 C 14.304688 -12.664062 13.972656 -13.695312 13.359375 -14.34375 C 12.753906 -14.988281 11.863281 -15.3125 10.6875 -15.3125 C 8.320312 -15.3125 6.929688 -13.957031 6.515625 -11.25 Z M 14.359375 -11.25 "/></g></g></g><g fill="#ffffff" fill-opacity="1"><g transform="translate(187.633641, 387.811088)"><g><path d="M 8.6875 0.359375 C 7.414062 0.359375 6.253906 0.207031 5.203125 -0.09375 C 4.148438 -0.394531 3.25 -0.804688 2.5 -1.328125 C 1.75 -1.847656 1.195312 -2.441406 0.84375 -3.109375 L 3.4375 -5.90625 L 3.796875 -5.90625 C 4.410156 -5.082031 5.140625 -4.460938 5.984375 -4.046875 C 6.828125 -3.628906 7.738281 -3.421875 8.71875 -3.421875 C 9.632812 -3.421875 10.320312 -3.582031 10.78125 -3.90625 C 11.238281 -4.226562 11.46875 -4.695312 11.46875 -5.3125 C 11.46875 -5.78125 11.300781 -6.171875 10.96875 -6.484375 C 10.644531 -6.804688 10.109375 -7.0625 9.359375 -7.25 L 6.90625 -7.828125 C 5.0625 -8.265625 3.710938 -8.9375 2.859375 -9.84375 C 2.015625 -10.75 1.59375 -11.898438 1.59375 -13.296875 C 1.59375 -14.453125 1.890625 -15.457031 2.484375 -16.3125 C 3.078125 -17.164062 3.910156 -17.816406 4.984375 -18.265625 C 6.054688 -18.710938 7.300781 -18.9375 8.71875 -18.9375 C 10.394531 -18.9375 11.78125 -18.691406 12.875 -18.203125 C 13.976562 -17.722656 14.84375 -17.078125 15.46875 -16.265625 L 12.96875 -13.578125 L 12.640625 -13.578125 C 12.117188 -14.160156 11.535156 -14.585938 10.890625 -14.859375 C 10.242188 -15.128906 9.519531 -15.265625 8.71875 -15.265625 C 6.882812 -15.265625 5.96875 -14.691406 5.96875 -13.546875 C 5.96875 -13.054688 6.132812 -12.660156 6.46875 -12.359375 C 6.8125 -12.054688 7.414062 -11.8125 8.28125 -11.625 L 10.578125 -11.125 C 12.460938 -10.71875 13.835938 -10.066406 14.703125 -9.171875 C 15.578125 -8.273438 16.015625 -7.078125 16.015625 -5.578125 C 16.015625 -4.398438 15.722656 -3.359375 15.140625 -2.453125 C 14.554688 -1.554688 13.710938 -0.863281 12.609375 -0.375 C 11.515625 0.113281 10.207031 0.359375 8.6875 0.359375 Z M 8.6875 0.359375 "/></g></g></g><g fill="#ffffff" fill-opacity="1"><g transform="translate(420.494104, 339.81109)"><g><path d="M 3.203125 0 L 3.203125 -24.625 L 13.09375 -24.625 C 15.632812 -24.625 17.550781 -24.035156 18.84375 -22.859375 C 20.144531 -21.691406 20.796875 -20.078125 20.796875 -18.015625 C 20.796875 -16.515625 20.414062 -15.285156 19.65625 -14.328125 C 18.90625 -13.378906 17.773438 -12.648438 16.265625 -12.140625 L 16.265625 -11.796875 C 17.046875 -11.453125 17.675781 -10.945312 18.15625 -10.28125 C 18.632812 -9.625 19.082031 -8.644531 19.5 -7.34375 L 21.96875 0 L 16.96875 0 L 14.5625 -7.359375 C 14.3125 -8.097656 14.03125 -8.671875 13.71875 -9.078125 C 13.40625 -9.492188 13.007812 -9.796875 12.53125 -9.984375 C 12.0625 -10.171875 11.445312 -10.265625 10.6875 -10.265625 L 8.0625 -10.265625 L 8.0625 0 Z M 12.5 -14.109375 C 14.851562 -14.109375 16.03125 -15.210938 16.03125 -17.421875 C 16.03125 -19.648438 14.851562 -20.765625 12.5 -20.765625 L 8.0625 -20.765625 L 8.0625 -14.109375 Z M 12.5 -14.109375 "/></g></g></g><g fill="#ffffff" fill-opacity="1"><g transform="translate(443.514363, 339.81109)"><g><path d="M 18.359375 -8.234375 L 6.421875 -8.234375 C 6.554688 -6.617188 7.015625 -5.441406 7.796875 -4.703125 C 8.585938 -3.972656 9.660156 -3.609375 11.015625 -3.609375 C 12.085938 -3.609375 12.953125 -3.804688 13.609375 -4.203125 C 14.273438 -4.597656 14.8125 -5.203125 15.21875 -6.015625 L 15.5625 -6.015625 L 18.671875 -4.03125 C 18.054688 -2.726562 17.132812 -1.671875 15.90625 -0.859375 C 14.6875 -0.046875 13.054688 0.359375 11.015625 0.359375 C 9.097656 0.359375 7.4375 -0.00390625 6.03125 -0.734375 C 4.632812 -1.472656 3.554688 -2.5625 2.796875 -4 C 2.046875 -5.445312 1.671875 -7.207031 1.671875 -9.28125 C 1.671875 -11.394531 2.066406 -13.175781 2.859375 -14.625 C 3.660156 -16.070312 4.738281 -17.148438 6.09375 -17.859375 C 7.457031 -18.578125 8.988281 -18.9375 10.6875 -18.9375 C 13.3125 -18.9375 15.320312 -18.238281 16.71875 -16.84375 C 18.113281 -15.445312 18.8125 -13.40625 18.8125 -10.71875 C 18.8125 -9.738281 18.78125 -8.976562 18.71875 -8.4375 Z M 14.359375 -11.25 C 14.304688 -12.664062 13.972656 -13.695312 13.359375 -14.34375 C 12.753906 -14.988281 11.863281 -15.3125 10.6875 -15.3125 C 8.320312 -15.3125 6.929688 -13.957031 6.515625 -11.25 Z M 14.359375 -11.25 "/></g></g></g><g fill="#ffffff" fill-opacity="1"><g transform="translate(463.705505, 339.81109)"><g><path d="M 9.1875 0.359375 C 7.707031 0.359375 6.40625 0.00390625 5.28125 -0.703125 C 4.15625 -1.421875 3.269531 -2.5 2.625 -3.9375 C 1.988281 -5.382812 1.671875 -7.164062 1.671875 -9.28125 C 1.671875 -11.40625 2 -13.1875 2.65625 -14.625 C 3.3125 -16.070312 4.21875 -17.148438 5.375 -17.859375 C 6.539062 -18.578125 7.890625 -18.9375 9.421875 -18.9375 C 10.578125 -18.9375 11.578125 -18.734375 12.421875 -18.328125 C 13.273438 -17.929688 13.992188 -17.3125 14.578125 -16.46875 L 14.921875 -16.5625 L 14.921875 -26.046875 L 19.59375 -26.046875 L 19.59375 0 L 14.921875 0 L 14.921875 -2.40625 L 14.578125 -2.46875 C 14.054688 -1.59375 13.34375 -0.898438 12.4375 -0.390625 C 11.539062 0.109375 10.457031 0.359375 9.1875 0.359375 Z M 10.703125 -3.609375 C 12.015625 -3.609375 13.050781 -4.078125 13.8125 -5.015625 C 14.570312 -5.953125 14.953125 -7.375 14.953125 -9.28125 C 14.953125 -11.1875 14.570312 -12.609375 13.8125 -13.546875 C 13.050781 -14.492188 12.015625 -14.96875 10.703125 -14.96875 C 9.328125 -14.96875 8.273438 -14.507812 7.546875 -13.59375 C 6.828125 -12.6875 6.46875 -11.25 6.46875 -9.28125 C 6.46875 -7.320312 6.828125 -5.882812 7.546875 -4.96875 C 8.273438 -4.0625 9.328125 -3.609375 10.703125 -3.609375 Z M 10.703125 -3.609375 "/></g></g></g><g fill="#ffffff" fill-opacity="1"><g transform="translate(485.967959, 339.81109)"><g><path d="M 8.5 0.359375 C 6.414062 0.359375 4.875 -0.207031 3.875 -1.34375 C 2.882812 -2.488281 2.390625 -4.128906 2.390625 -6.265625 L 2.390625 -18.578125 L 7.0625 -18.578125 L 7.0625 -6.859375 C 7.0625 -5.722656 7.304688 -4.894531 7.796875 -4.375 C 8.285156 -3.851562 9.039062 -3.59375 10.0625 -3.59375 C 11.351562 -3.59375 12.359375 -4.015625 13.078125 -4.859375 C 13.796875 -5.703125 14.15625 -7.035156 14.15625 -8.859375 L 14.15625 -18.578125 L 18.8125 -18.578125 L 18.8125 0 L 14.328125 0 L 14.328125 -2.734375 L 13.984375 -2.8125 C 13.390625 -1.75 12.660156 -0.953125 11.796875 -0.421875 C 10.941406 0.0976562 9.84375 0.359375 8.5 0.359375 Z M 8.5 0.359375 "/></g></g></g><g fill="#ffffff" fill-opacity="1"><g transform="translate(507.455774, 339.81109)"><g><path d="M 10.828125 0.359375 C 9.035156 0.359375 7.445312 -0.015625 6.0625 -0.765625 C 4.6875 -1.515625 3.609375 -2.613281 2.828125 -4.0625 C 2.054688 -5.507812 1.671875 -7.25 1.671875 -9.28125 C 1.671875 -11.320312 2.054688 -13.066406 2.828125 -14.515625 C 3.609375 -15.960938 4.679688 -17.0625 6.046875 -17.8125 C 7.421875 -18.5625 8.988281 -18.9375 10.75 -18.9375 C 14.664062 -18.9375 17.175781 -17.515625 18.28125 -14.671875 L 15.078125 -12.375 L 14.71875 -12.375 C 14.34375 -13.257812 13.847656 -13.910156 13.234375 -14.328125 C 12.617188 -14.753906 11.789062 -14.96875 10.75 -14.96875 C 9.394531 -14.96875 8.34375 -14.5 7.59375 -13.5625 C 6.84375 -12.632812 6.46875 -11.207031 6.46875 -9.28125 C 6.46875 -7.375 6.847656 -5.953125 7.609375 -5.015625 C 8.378906 -4.078125 9.453125 -3.609375 10.828125 -3.609375 C 11.835938 -3.609375 12.691406 -3.878906 13.390625 -4.421875 C 14.097656 -4.960938 14.601562 -5.742188 14.90625 -6.765625 L 15.265625 -6.8125 L 18.578125 -4.984375 C 18.109375 -3.410156 17.234375 -2.125 15.953125 -1.125 C 14.679688 -0.132812 12.972656 0.359375 10.828125 0.359375 Z M 10.828125 0.359375 "/></g></g></g><g fill="#ffffff" fill-opacity="1"><g transform="translate(526.602837, 339.81109)"><g><path d="M 18.359375 -8.234375 L 6.421875 -8.234375 C 6.554688 -6.617188 7.015625 -5.441406 7.796875 -4.703125 C 8.585938 -3.972656 9.660156 -3.609375 11.015625 -3.609375 C 12.085938 -3.609375 12.953125 -3.804688 13.609375 -4.203125 C 14.273438 -4.597656 14.8125 -5.203125 15.21875 -6.015625 L 15.5625 -6.015625 L 18.671875 -4.03125 C 18.054688 -2.726562 17.132812 -1.671875 15.90625 -0.859375 C 14.6875 -0.046875 13.054688 0.359375 11.015625 0.359375 C 9.097656 0.359375 7.4375 -0.00390625 6.03125 -0.734375 C 4.632812 -1.472656 3.554688 -2.5625 2.796875 -4 C 2.046875 -5.445312 1.671875 -7.207031 1.671875 -9.28125 C 1.671875 -11.394531 2.066406 -13.175781 2.859375 -14.625 C 3.660156 -16.070312 4.738281 -17.148438 6.09375 -17.859375 C 7.457031 -18.578125 8.988281 -18.9375 10.6875 -18.9375 C 13.3125 -18.9375 15.320312 -18.238281 16.71875 -16.84375 C 18.113281 -15.445312 18.8125 -13.40625 18.8125 -10.71875 C 18.8125 -9.738281 18.78125 -8.976562 18.71875 -8.4375 Z M 14.359375 -11.25 C 14.304688 -12.664062 13.972656 -13.695312 13.359375 -14.34375 C 12.753906 -14.988281 11.863281 -15.3125 10.6875 -15.3125 C 8.320312 -15.3125 6.929688 -13.957031 6.515625 -11.25 Z M 14.359375 -11.25 "/></g></g></g><g fill="#ffffff" fill-opacity="1"><g transform="translate(546.793979, 339.81109)"><g><path d="M 9.1875 0.359375 C 7.707031 0.359375 6.40625 0.00390625 5.28125 -0.703125 C 4.15625 -1.421875 3.269531 -2.5 2.625 -3.9375 C 1.988281 -5.382812 1.671875 -7.164062 1.671875 -9.28125 C 1.671875 -11.40625 2 -13.1875 2.65625 -14.625 C 3.3125 -16.070312 4.21875 -17.148438 5.375 -17.859375 C 6.539062 -18.578125 7.890625 -18.9375 9.421875 -18.9375 C 10.578125 -18.9375 11.578125 -18.734375 12.421875 -18.328125 C 13.273438 -17.929688 13.992188 -17.3125 14.578125 -16.46875 L 14.921875 -16.5625 L 14.921875 -26.046875 L 19.59375 -26.046875 L 19.59375 0 L 14.921875 0 L 14.921875 -2.40625 L 14.578125 -2.46875 C 14.054688 -1.59375 13.34375 -0.898438 12.4375 -0.390625 C 11.539062 0.109375 10.457031 0.359375 9.1875 0.359375 Z M 10.703125 -3.609375 C 12.015625 -3.609375 13.050781 -4.078125 13.8125 -5.015625 C 14.570312 -5.953125 14.953125 -7.375 14.953125 -9.28125 C 14.953125 -11.1875 14.570312 -12.609375 13.8125 -13.546875 C 13.050781 -14.492188 12.015625 -14.96875 10.703125 -14.96875 C 9.328125 -14.96875 8.273438 -14.507812 7.546875 -13.59375 C 6.828125 -12.6875 6.46875 -11.25 6.46875 -9.28125 C 6.46875 -7.320312 6.828125 -5.882812 7.546875 -4.96875 C 8.273438 -4.0625 9.328125 -3.609375 10.703125 -3.609375 Z M 10.703125 -3.609375 "/></g></g></g><g fill="#ffffff" fill-opacity="1"><g transform="translate(450.060509, 387.811088)"><g><path d="M 10.828125 0.359375 C 9.035156 0.359375 7.445312 -0.015625 6.0625 -0.765625 C 4.6875 -1.515625 3.609375 -2.613281 2.828125 -4.0625 C 2.054688 -5.507812 1.671875 -7.25 1.671875 -9.28125 C 1.671875 -11.320312 2.054688 -13.066406 2.828125 -14.515625 C 3.609375 -15.960938 4.679688 -17.0625 6.046875 -17.8125 C 7.421875 -18.5625 8.988281 -18.9375 10.75 -18.9375 C 14.664062 -18.9375 17.175781 -17.515625 18.28125 -14.671875 L 15.078125 -12.375 L 14.71875 -12.375 C 14.34375 -13.257812 13.847656 -13.910156 13.234375 -14.328125 C 12.617188 -14.753906 11.789062 -14.96875 10.75 -14.96875 C 9.394531 -14.96875 8.34375 -14.5 7.59375 -13.5625 C 6.84375 -12.632812 6.46875 -11.207031 6.46875 -9.28125 C 6.46875 -7.375 6.847656 -5.953125 7.609375 -5.015625 C 8.378906 -4.078125 9.453125 -3.609375 10.828125 -3.609375 C 11.835938 -3.609375 12.691406 -3.878906 13.390625 -4.421875 C 14.097656 -4.960938 14.601562 -5.742188 14.90625 -6.765625 L 15.265625 -6.8125 L 18.578125 -4.984375 C 18.109375 -3.410156 17.234375 -2.125 15.953125 -1.125 C 14.679688 -0.132812 12.972656 0.359375 10.828125 0.359375 Z M 10.828125 0.359375 "/></g></g></g><g fill="#ffffff" fill-opacity="1"><g transform="translate(469.207572, 387.811088)"><g><path d="M 10.796875 0.359375 C 8.972656 0.359375 7.375 -0.015625 6 -0.765625 C 4.625 -1.515625 3.554688 -2.609375 2.796875 -4.046875 C 2.046875 -5.492188 1.671875 -7.238281 1.671875 -9.28125 C 1.671875 -11.320312 2.046875 -13.066406 2.796875 -14.515625 C 3.554688 -15.960938 4.625 -17.0625 6 -17.8125 C 7.375 -18.5625 8.972656 -18.9375 10.796875 -18.9375 C 12.617188 -18.9375 14.21875 -18.5625 15.59375 -17.8125 C 16.96875 -17.0625 18.035156 -15.960938 18.796875 -14.515625 C 19.566406 -13.066406 19.953125 -11.320312 19.953125 -9.28125 C 19.953125 -7.238281 19.566406 -5.492188 18.796875 -4.046875 C 18.035156 -2.609375 16.96875 -1.515625 15.59375 -0.765625 C 14.21875 -0.015625 12.617188 0.359375 10.796875 0.359375 Z M 10.796875 -3.609375 C 13.679688 -3.609375 15.125 -5.5 15.125 -9.28125 C 15.125 -11.25 14.753906 -12.6875 14.015625 -13.59375 C 13.273438 -14.507812 12.203125 -14.96875 10.796875 -14.96875 C 7.910156 -14.96875 6.46875 -13.070312 6.46875 -9.28125 C 6.46875 -5.5 7.910156 -3.609375 10.796875 -3.609375 Z M 10.796875 -3.609375 "/></g></g></g><g fill="#ffffff" fill-opacity="1"><g transform="translate(490.796427, 387.811088)"><g><path d="M 8.6875 0.359375 C 7.414062 0.359375 6.253906 0.207031 5.203125 -0.09375 C 4.148438 -0.394531 3.25 -0.804688 2.5 -1.328125 C 1.75 -1.847656 1.195312 -2.441406 0.84375 -3.109375 L 3.4375 -5.90625 L 3.796875 -5.90625 C 4.410156 -5.082031 5.140625 -4.460938 5.984375 -4.046875 C 6.828125 -3.628906 7.738281 -3.421875 8.71875 -3.421875 C 9.632812 -3.421875 10.320312 -3.582031 10.78125 -3.90625 C 11.238281 -4.226562 11.46875 -4.695312 11.46875 -5.3125 C 11.46875 -5.78125 11.300781 -6.171875 10.96875 -6.484375 C 10.644531 -6.804688 10.109375 -7.0625 9.359375 -7.25 L 6.90625 -7.828125 C 5.0625 -8.265625 3.710938 -8.9375 2.859375 -9.84375 C 2.015625 -10.75 1.59375 -11.898438 1.59375 -13.296875 C 1.59375 -14.453125 1.890625 -15.457031 2.484375 -16.3125 C 3.078125 -17.164062 3.910156 -17.816406 4.984375 -18.265625 C 6.054688 -18.710938 7.300781 -18.9375 8.71875 -18.9375 C 10.394531 -18.9375 11.78125 -18.691406 12.875 -18.203125 C 13.976562 -17.722656 14.84375 -17.078125 15.46875 -16.265625 L 12.96875 -13.578125 L 12.640625 -13.578125 C 12.117188 -14.160156 11.535156 -14.585938 10.890625 -14.859375 C 10.242188 -15.128906 9.519531 -15.265625 8.71875 -15.265625 C 6.882812 -15.265625 5.96875 -14.691406 5.96875 -13.546875 C 5.96875 -13.054688 6.132812 -12.660156 6.46875 -12.359375 C 6.8125 -12.054688 7.414062 -11.8125 8.28125 -11.625 L 10.578125 -11.125 C 12.460938 -10.71875 13.835938 -10.066406 14.703125 -9.171875 C 15.578125 -8.273438 16.015625 -7.078125 16.015625 -5.578125 C 16.015625 -4.398438 15.722656 -3.359375 15.140625 -2.453125 C 14.554688 -1.554688 13.710938 -0.863281 12.609375 -0.375 C 11.515625 0.113281 10.207031 0.359375 8.6875 0.359375 Z M 8.6875 0.359375 "/></g></g></g><g fill="#ffffff" fill-opacity="1"><g transform="translate(507.922693, 387.811088)"><g><path d="M 12.8125 -4.4375 L 14.03125 -0.984375 C 13.53125 -0.566406 12.894531 -0.238281 12.125 0 C 11.363281 0.238281 10.5 0.359375 9.53125 0.359375 C 7.519531 0.359375 5.992188 -0.1875 4.953125 -1.28125 C 3.910156 -2.382812 3.390625 -3.976562 3.390625 -6.0625 L 3.390625 -14.890625 L 0.5625 -14.890625 L 0.5625 -18.59375 L 3.390625 -18.59375 L 3.390625 -22.21875 L 8.046875 -22.984375 L 8.046875 -18.59375 L 13.328125 -18.59375 L 13.328125 -14.890625 L 8.046875 -14.890625 L 8.046875 -6.40625 C 8.046875 -5.476562 8.238281 -4.800781 8.625 -4.375 C 9.007812 -3.957031 9.566406 -3.75 10.296875 -3.75 C 11.128906 -3.75 11.851562 -3.976562 12.46875 -4.4375 Z M 12.8125 -4.4375 "/></g></g></g><g fill="#ffffff" fill-opacity="1"><g transform="translate(522.354562, 387.811088)"><g><path d="M 8.6875 0.359375 C 7.414062 0.359375 6.253906 0.207031 5.203125 -0.09375 C 4.148438 -0.394531 3.25 -0.804688 2.5 -1.328125 C 1.75 -1.847656 1.195312 -2.441406 0.84375 -3.109375 L 3.4375 -5.90625 L 3.796875 -5.90625 C 4.410156 -5.082031 5.140625 -4.460938 5.984375 -4.046875 C 6.828125 -3.628906 7.738281 -3.421875 8.71875 -3.421875 C 9.632812 -3.421875 10.320312 -3.582031 10.78125 -3.90625 C 11.238281 -4.226562 11.46875 -4.695312 11.46875 -5.3125 C 11.46875 -5.78125 11.300781 -6.171875 10.96875 -6.484375 C 10.644531 -6.804688 10.109375 -7.0625 9.359375 -7.25 L 6.90625 -7.828125 C 5.0625 -8.265625 3.710938 -8.9375 2.859375 -9.84375 C 2.015625 -10.75 1.59375 -11.898438 1.59375 -13.296875 C 1.59375 -14.453125 1.890625 -15.457031 2.484375 -16.3125 C 3.078125 -17.164062 3.910156 -17.816406 4.984375 -18.265625 C 6.054688 -18.710938 7.300781 -18.9375 8.71875 -18.9375 C 10.394531 -18.9375 11.78125 -18.691406 12.875 -18.203125 C 13.976562 -17.722656 14.84375 -17.078125 15.46875 -16.265625 L 12.96875 -13.578125 L 12.640625 -13.578125 C 12.117188 -14.160156 11.535156 -14.585938 10.890625 -14.859375 C 10.242188 -15.128906 9.519531 -15.265625 8.71875 -15.265625 C 6.882812 -15.265625 5.96875 -14.691406 5.96875 -13.546875 C 5.96875 -13.054688 6.132812 -12.660156 6.46875 -12.359375 C 6.8125 -12.054688 7.414062 -11.8125 8.28125 -11.625 L 10.578125 -11.125 C 12.460938 -10.71875 13.835938 -10.066406 14.703125 -9.171875 C 15.578125 -8.273438 16.015625 -7.078125 16.015625 -5.578125 C 16.015625 -4.398438 15.722656 -3.359375 15.140625 -2.453125 C 14.554688 -1.554688 13.710938 -0.863281 12.609375 -0.375 C 11.515625 0.113281 10.207031 0.359375 8.6875 0.359375 Z M 8.6875 0.359375 "/></g></g></g><g fill="#ffffff" fill-opacity="1"><g transform="translate(127.67801, 146.259659)"><g><path d="M 12.71875 -24.625 C 14.476562 -24.625 15.984375 -24.300781 17.234375 -23.65625 C 18.492188 -23.007812 19.441406 -22.101562 20.078125 -20.9375 C 20.722656 -19.78125 21.046875 -18.429688 21.046875 -16.890625 C 21.046875 -15.359375 20.722656 -14.015625 20.078125 -12.859375 C 19.441406 -11.703125 18.492188 -10.800781 17.234375 -10.15625 C 15.984375 -9.507812 14.476562 -9.1875 12.71875 -9.1875 L 8.0625 -9.1875 L 8.0625 0 L 3.203125 0 L 3.203125 -24.625 Z M 12.078125 -13.03125 C 14.785156 -13.03125 16.140625 -14.316406 16.140625 -16.890625 C 16.140625 -19.472656 14.785156 -20.765625 12.078125 -20.765625 L 8.0625 -20.765625 L 8.0625 -13.03125 Z M 12.078125 -13.03125 "/></g></g></g><g fill="#ffffff" fill-opacity="1"><g transform="translate(150.176224, 146.259659)"><g><path d="M 7.25 0.359375 C 6.050781 0.359375 5.015625 0.140625 4.140625 -0.296875 C 3.265625 -0.734375 2.59375 -1.375 2.125 -2.21875 C 1.65625 -3.070312 1.421875 -4.097656 1.421875 -5.296875 C 1.421875 -6.390625 1.65625 -7.3125 2.125 -8.0625 C 2.59375 -8.8125 3.320312 -9.421875 4.3125 -9.890625 C 5.300781 -10.367188 6.59375 -10.738281 8.1875 -11 C 9.300781 -11.175781 10.144531 -11.367188 10.71875 -11.578125 C 11.300781 -11.796875 11.691406 -12.039062 11.890625 -12.3125 C 12.097656 -12.582031 12.203125 -12.925781 12.203125 -13.34375 C 12.203125 -13.9375 11.992188 -14.390625 11.578125 -14.703125 C 11.160156 -15.015625 10.46875 -15.171875 9.5 -15.171875 C 8.46875 -15.171875 7.484375 -14.941406 6.546875 -14.484375 C 5.617188 -14.023438 4.8125 -13.421875 4.125 -12.671875 L 3.796875 -12.671875 L 1.84375 -15.609375 C 2.78125 -16.660156 3.925781 -17.476562 5.28125 -18.0625 C 6.644531 -18.644531 8.128906 -18.9375 9.734375 -18.9375 C 12.191406 -18.9375 13.972656 -18.410156 15.078125 -17.359375 C 16.179688 -16.316406 16.734375 -14.835938 16.734375 -12.921875 L 16.734375 -4.859375 C 16.734375 -4.023438 17.097656 -3.609375 17.828125 -3.609375 C 18.109375 -3.609375 18.378906 -3.65625 18.640625 -3.75 L 18.890625 -3.6875 L 19.21875 -0.4375 C 18.957031 -0.269531 18.597656 -0.128906 18.140625 -0.015625 C 17.679688 0.0859375 17.175781 0.140625 16.625 0.140625 C 15.507812 0.140625 14.640625 -0.0703125 14.015625 -0.5 C 13.398438 -0.925781 12.957031 -1.597656 12.6875 -2.515625 L 12.328125 -2.546875 C 11.421875 -0.609375 9.726562 0.359375 7.25 0.359375 Z M 8.71875 -3.140625 C 9.800781 -3.140625 10.664062 -3.5 11.3125 -4.21875 C 11.957031 -4.945312 12.28125 -5.957031 12.28125 -7.25 L 12.28125 -9.125 L 11.953125 -9.203125 C 11.679688 -8.972656 11.316406 -8.78125 10.859375 -8.625 C 10.398438 -8.476562 9.742188 -8.332031 8.890625 -8.1875 C 7.878906 -8.019531 7.148438 -7.726562 6.703125 -7.3125 C 6.265625 -6.90625 6.046875 -6.328125 6.046875 -5.578125 C 6.046875 -4.773438 6.28125 -4.164062 6.75 -3.75 C 7.226562 -3.34375 7.882812 -3.140625 8.71875 -3.140625 Z M 8.71875 -3.140625 "/></g></g></g><g fill="#ffffff" fill-opacity="1"><g transform="translate(169.761126, 146.259659)"><g><path d="M 12.8125 -4.4375 L 14.03125 -0.984375 C 13.53125 -0.566406 12.894531 -0.238281 12.125 0 C 11.363281 0.238281 10.5 0.359375 9.53125 0.359375 C 7.519531 0.359375 5.992188 -0.1875 4.953125 -1.28125 C 3.910156 -2.382812 3.390625 -3.976562 3.390625 -6.0625 L 3.390625 -14.890625 L 0.5625 -14.890625 L 0.5625 -18.59375 L 3.390625 -18.59375 L 3.390625 -22.21875 L 8.046875 -22.984375 L 8.046875 -18.59375 L 13.328125 -18.59375 L 13.328125 -14.890625 L 8.046875 -14.890625 L 8.046875 -6.40625 C 8.046875 -5.476562 8.238281 -4.800781 8.625 -4.375 C 9.007812 -3.957031 9.566406 -3.75 10.296875 -3.75 C 11.128906 -3.75 11.851562 -3.976562 12.46875 -4.4375 Z M 12.8125 -4.4375 "/></g></g></g><g fill="#ffffff" fill-opacity="1"><g transform="translate(184.192996, 146.259659)"><g><path d="M 5 -20.796875 C 4.15625 -20.796875 3.46875 -21.050781 2.9375 -21.5625 C 2.414062 -22.082031 2.15625 -22.742188 2.15625 -23.546875 C 2.15625 -24.347656 2.414062 -25.003906 2.9375 -25.515625 C 3.46875 -26.023438 4.15625 -26.28125 5 -26.28125 C 5.5625 -26.28125 6.0625 -26.160156 6.5 -25.921875 C 6.9375 -25.691406 7.273438 -25.367188 7.515625 -24.953125 C 7.765625 -24.546875 7.890625 -24.078125 7.890625 -23.546875 C 7.890625 -23.023438 7.765625 -22.554688 7.515625 -22.140625 C 7.273438 -21.722656 6.9375 -21.394531 6.5 -21.15625 C 6.0625 -20.914062 5.5625 -20.796875 5 -20.796875 Z M 2.671875 0 L 2.671875 -18.578125 L 7.34375 -18.578125 L 7.34375 0 Z M 2.671875 0 "/></g></g></g><g fill="#ffffff" fill-opacity="1"><g transform="translate(194.195944, 146.259659)"><g><path d="M 18.359375 -8.234375 L 6.421875 -8.234375 C 6.554688 -6.617188 7.015625 -5.441406 7.796875 -4.703125 C 8.585938 -3.972656 9.660156 -3.609375 11.015625 -3.609375 C 12.085938 -3.609375 12.953125 -3.804688 13.609375 -4.203125 C 14.273438 -4.597656 14.8125 -5.203125 15.21875 -6.015625 L 15.5625 -6.015625 L 18.671875 -4.03125 C 18.054688 -2.726562 17.132812 -1.671875 15.90625 -0.859375 C 14.6875 -0.046875 13.054688 0.359375 11.015625 0.359375 C 9.097656 0.359375 7.4375 -0.00390625 6.03125 -0.734375 C 4.632812 -1.472656 3.554688 -2.5625 2.796875 -4 C 2.046875 -5.445312 1.671875 -7.207031 1.671875 -9.28125 C 1.671875 -11.394531 2.066406 -13.175781 2.859375 -14.625 C 3.660156 -16.070312 4.738281 -17.148438 6.09375 -17.859375 C 7.457031 -18.578125 8.988281 -18.9375 10.6875 -18.9375 C 13.3125 -18.9375 15.320312 -18.238281 16.71875 -16.84375 C 18.113281 -15.445312 18.8125 -13.40625 18.8125 -10.71875 C 18.8125 -9.738281 18.78125 -8.976562 18.71875 -8.4375 Z M 14.359375 -11.25 C 14.304688 -12.664062 13.972656 -13.695312 13.359375 -14.34375 C 12.753906 -14.988281 11.863281 -15.3125 10.6875 -15.3125 C 8.320312 -15.3125 6.929688 -13.957031 6.515625 -11.25 Z M 14.359375 -11.25 "/></g></g></g><g fill="#ffffff" fill-opacity="1"><g transform="translate(214.387086, 146.259659)"><g><path d="M 2.671875 0 L 2.671875 -18.578125 L 7.15625 -18.578125 L 7.15625 -15.859375 L 7.515625 -15.765625 C 8.671875 -17.878906 10.546875 -18.9375 13.140625 -18.9375 C 15.285156 -18.9375 16.859375 -18.351562 17.859375 -17.1875 C 18.867188 -16.019531 19.375 -14.316406 19.375 -12.078125 L 19.375 0 L 14.703125 0 L 14.703125 -11.5 C 14.703125 -12.738281 14.453125 -13.628906 13.953125 -14.171875 C 13.460938 -14.722656 12.675781 -15 11.59375 -15 C 10.25 -15 9.203125 -14.566406 8.453125 -13.703125 C 7.710938 -12.835938 7.34375 -11.476562 7.34375 -9.625 L 7.34375 0 Z M 2.671875 0 "/></g></g></g><g fill="#ffffff" fill-opacity="1"><g transform="translate(236.144341, 146.259659)"><g><path d="M 12.8125 -4.4375 L 14.03125 -0.984375 C 13.53125 -0.566406 12.894531 -0.238281 12.125 0 C 11.363281 0.238281 10.5 0.359375 9.53125 0.359375 C 7.519531 0.359375 5.992188 -0.1875 4.953125 -1.28125 C 3.910156 -2.382812 3.390625 -3.976562 3.390625 -6.0625 L 3.390625 -14.890625 L 0.5625 -14.890625 L 0.5625 -18.59375 L 3.390625 -18.59375 L 3.390625 -22.21875 L 8.046875 -22.984375 L 8.046875 -18.59375 L 13.328125 -18.59375 L 13.328125 -14.890625 L 8.046875 -14.890625 L 8.046875 -6.40625 C 8.046875 -5.476562 8.238281 -4.800781 8.625 -4.375 C 9.007812 -3.957031 9.566406 -3.75 10.296875 -3.75 C 11.128906 -3.75 11.851562 -3.976562 12.46875 -4.4375 Z M 12.8125 -4.4375 "/></g></g></g><g fill="#ffffff" fill-opacity="1"><g transform="translate(95.955355, 194.259657)"><g><path d="M 18.359375 -8.234375 L 6.421875 -8.234375 C 6.554688 -6.617188 7.015625 -5.441406 7.796875 -4.703125 C 8.585938 -3.972656 9.660156 -3.609375 11.015625 -3.609375 C 12.085938 -3.609375 12.953125 -3.804688 13.609375 -4.203125 C 14.273438 -4.597656 14.8125 -5.203125 15.21875 -6.015625 L 15.5625 -6.015625 L 18.671875 -4.03125 C 18.054688 -2.726562 17.132812 -1.671875 15.90625 -0.859375 C 14.6875 -0.046875 13.054688 0.359375 11.015625 0.359375 C 9.097656 0.359375 7.4375 -0.00390625 6.03125 -0.734375 C 4.632812 -1.472656 3.554688 -2.5625 2.796875 -4 C 2.046875 -5.445312 1.671875 -7.207031 1.671875 -9.28125 C 1.671875 -11.394531 2.066406 -13.175781 2.859375 -14.625 C 3.660156 -16.070312 4.738281 -17.148438 6.09375 -17.859375 C 7.457031 -18.578125 8.988281 -18.9375 10.6875 -18.9375 C 13.3125 -18.9375 15.320312 -18.238281 16.71875 -16.84375 C 18.113281 -15.445312 18.8125 -13.40625 18.8125 -10.71875 C 18.8125 -9.738281 18.78125 -8.976562 18.71875 -8.4375 Z M 14.359375 -11.25 C 14.304688 -12.664062 13.972656 -13.695312 13.359375 -14.34375 C 12.753906 -14.988281 11.863281 -15.3125 10.6875 -15.3125 C 8.320312 -15.3125 6.929688 -13.957031 6.515625 -11.25 Z M 14.359375 -11.25 "/></g></g></g><g fill="#ffffff" fill-opacity="1"><g transform="translate(116.146497, 194.259657)"><g><path d="M 5.234375 0 L 0.3125 0 L 5.625 -9.640625 L 0.609375 -18.578125 L 5.59375 -18.578125 L 8.8125 -12.46875 L 9.203125 -12.46875 L 12.4375 -18.578125 L 17.265625 -18.578125 L 12.40625 -9.640625 L 17.546875 0 L 12.578125 0 L 9.078125 -6.78125 L 8.6875 -6.78125 Z M 5.234375 0 "/></g></g></g><g fill="#ffffff" fill-opacity="1"><g transform="translate(134.013722, 194.259657)"><g><path d="M 2.671875 7.53125 L 2.671875 -18.578125 L 7.34375 -18.578125 L 7.34375 -16.15625 L 7.703125 -16.09375 C 8.253906 -17.03125 8.988281 -17.738281 9.90625 -18.21875 C 10.820312 -18.695312 11.898438 -18.9375 13.140625 -18.9375 C 14.628906 -18.9375 15.929688 -18.582031 17.046875 -17.875 C 18.171875 -17.164062 19.046875 -16.085938 19.671875 -14.640625 C 20.296875 -13.203125 20.609375 -11.414062 20.609375 -9.28125 C 20.609375 -7.15625 20.273438 -5.375 19.609375 -3.9375 C 18.953125 -2.5 18.039062 -1.421875 16.875 -0.703125 C 15.707031 0.00390625 14.363281 0.359375 12.84375 0.359375 C 11.675781 0.359375 10.671875 0.164062 9.828125 -0.21875 C 8.992188 -0.613281 8.285156 -1.21875 7.703125 -2.03125 L 7.34375 -1.96875 L 7.34375 7.53125 Z M 11.546875 -3.609375 C 12.929688 -3.609375 13.984375 -4.0625 14.703125 -4.96875 C 15.421875 -5.875 15.78125 -7.3125 15.78125 -9.28125 C 15.78125 -11.25 15.421875 -12.6875 14.703125 -13.59375 C 13.984375 -14.507812 12.929688 -14.96875 11.546875 -14.96875 C 10.234375 -14.96875 9.195312 -14.492188 8.4375 -13.546875 C 7.675781 -12.609375 7.296875 -11.1875 7.296875 -9.28125 C 7.296875 -7.382812 7.675781 -5.960938 8.4375 -5.015625 C 9.195312 -4.078125 10.234375 -3.609375 11.546875 -3.609375 Z M 11.546875 -3.609375 "/></g></g></g><g fill="#ffffff" fill-opacity="1"><g transform="translate(156.259342, 194.259657)"><g><path d="M 18.359375 -8.234375 L 6.421875 -8.234375 C 6.554688 -6.617188 7.015625 -5.441406 7.796875 -4.703125 C 8.585938 -3.972656 9.660156 -3.609375 11.015625 -3.609375 C 12.085938 -3.609375 12.953125 -3.804688 13.609375 -4.203125 C 14.273438 -4.597656 14.8125 -5.203125 15.21875 -6.015625 L 15.5625 -6.015625 L 18.671875 -4.03125 C 18.054688 -2.726562 17.132812 -1.671875 15.90625 -0.859375 C 14.6875 -0.046875 13.054688 0.359375 11.015625 0.359375 C 9.097656 0.359375 7.4375 -0.00390625 6.03125 -0.734375 C 4.632812 -1.472656 3.554688 -2.5625 2.796875 -4 C 2.046875 -5.445312 1.671875 -7.207031 1.671875 -9.28125 C 1.671875 -11.394531 2.066406 -13.175781 2.859375 -14.625 C 3.660156 -16.070312 4.738281 -17.148438 6.09375 -17.859375 C 7.457031 -18.578125 8.988281 -18.9375 10.6875 -18.9375 C 13.3125 -18.9375 15.320312 -18.238281 16.71875 -16.84375 C 18.113281 -15.445312 18.8125 -13.40625 18.8125 -10.71875 C 18.8125 -9.738281 18.78125 -8.976562 18.71875 -8.4375 Z M 14.359375 -11.25 C 14.304688 -12.664062 13.972656 -13.695312 13.359375 -14.34375 C 12.753906 -14.988281 11.863281 -15.3125 10.6875 -15.3125 C 8.320312 -15.3125 6.929688 -13.957031 6.515625 -11.25 Z M 14.359375 -11.25 "/></g></g></g><g fill="#ffffff" fill-opacity="1"><g transform="translate(176.450484, 194.259657)"><g><path d="M 2.671875 0 L 2.671875 -18.578125 L 7.203125 -18.578125 L 7.203125 -15.8125 L 7.5625 -15.75 C 8.007812 -16.78125 8.597656 -17.535156 9.328125 -18.015625 C 10.054688 -18.503906 10.945312 -18.75 12 -18.75 C 13.050781 -18.75 13.851562 -18.566406 14.40625 -18.203125 L 13.609375 -14.1875 L 13.25 -14.109375 C 12.945312 -14.234375 12.65625 -14.320312 12.375 -14.375 C 12.09375 -14.4375 11.753906 -14.46875 11.359375 -14.46875 C 10.054688 -14.46875 9.0625 -14.007812 8.375 -13.09375 C 7.6875 -12.175781 7.34375 -10.707031 7.34375 -8.6875 L 7.34375 0 Z M 2.671875 0 "/></g></g></g><g fill="#ffffff" fill-opacity="1"><g transform="translate(191.017073, 194.259657)"><g><path d="M 5 -20.796875 C 4.15625 -20.796875 3.46875 -21.050781 2.9375 -21.5625 C 2.414062 -22.082031 2.15625 -22.742188 2.15625 -23.546875 C 2.15625 -24.347656 2.414062 -25.003906 2.9375 -25.515625 C 3.46875 -26.023438 4.15625 -26.28125 5 -26.28125 C 5.5625 -26.28125 6.0625 -26.160156 6.5 -25.921875 C 6.9375 -25.691406 7.273438 -25.367188 7.515625 -24.953125 C 7.765625 -24.546875 7.890625 -24.078125 7.890625 -23.546875 C 7.890625 -23.023438 7.765625 -22.554688 7.515625 -22.140625 C 7.273438 -21.722656 6.9375 -21.394531 6.5 -21.15625 C 6.0625 -20.914062 5.5625 -20.796875 5 -20.796875 Z M 2.671875 0 L 2.671875 -18.578125 L 7.34375 -18.578125 L 7.34375 0 Z M 2.671875 0 "/></g></g></g><g fill="#ffffff" fill-opacity="1"><g transform="translate(201.020021, 194.259657)"><g><path d="M 18.359375 -8.234375 L 6.421875 -8.234375 C 6.554688 -6.617188 7.015625 -5.441406 7.796875 -4.703125 C 8.585938 -3.972656 9.660156 -3.609375 11.015625 -3.609375 C 12.085938 -3.609375 12.953125 -3.804688 13.609375 -4.203125 C 14.273438 -4.597656 14.8125 -5.203125 15.21875 -6.015625 L 15.5625 -6.015625 L 18.671875 -4.03125 C 18.054688 -2.726562 17.132812 -1.671875 15.90625 -0.859375 C 14.6875 -0.046875 13.054688 0.359375 11.015625 0.359375 C 9.097656 0.359375 7.4375 -0.00390625 6.03125 -0.734375 C 4.632812 -1.472656 3.554688 -2.5625 2.796875 -4 C 2.046875 -5.445312 1.671875 -7.207031 1.671875 -9.28125 C 1.671875 -11.394531 2.066406 -13.175781 2.859375 -14.625 C 3.660156 -16.070312 4.738281 -17.148438 6.09375 -17.859375 C 7.457031 -18.578125 8.988281 -18.9375 10.6875 -18.9375 C 13.3125 -18.9375 15.320312 -18.238281 16.71875 -16.84375 C 18.113281 -15.445312 18.8125 -13.40625 18.8125 -10.71875 C 18.8125 -9.738281 18.78125 -8.976562 18.71875 -8.4375 Z M 14.359375 -11.25 C 14.304688 -12.664062 13.972656 -13.695312 13.359375 -14.34375 C 12.753906 -14.988281 11.863281 -15.3125 10.6875 -15.3125 C 8.320312 -15.3125 6.929688 -13.957031 6.515625 -11.25 Z M 14.359375 -11.25 "/></g></g></g><g fill="#ffffff" fill-opacity="1"><g transform="translate(221.211163, 194.259657)"><g><path d="M 2.671875 0 L 2.671875 -18.578125 L 7.15625 -18.578125 L 7.15625 -15.859375 L 7.515625 -15.765625 C 8.671875 -17.878906 10.546875 -18.9375 13.140625 -18.9375 C 15.285156 -18.9375 16.859375 -18.351562 17.859375 -17.1875 C 18.867188 -16.019531 19.375 -14.316406 19.375 -12.078125 L 19.375 0 L 14.703125 0 L 14.703125 -11.5 C 14.703125 -12.738281 14.453125 -13.628906 13.953125 -14.171875 C 13.460938 -14.722656 12.675781 -15 11.59375 -15 C 10.25 -15 9.203125 -14.566406 8.453125 -13.703125 C 7.710938 -12.835938 7.34375 -11.476562 7.34375 -9.625 L 7.34375 0 Z M 2.671875 0 "/></g></g></g><g fill="#ffffff" fill-opacity="1"><g transform="translate(242.968418, 194.259657)"><g><path d="M 10.828125 0.359375 C 9.035156 0.359375 7.445312 -0.015625 6.0625 -0.765625 C 4.6875 -1.515625 3.609375 -2.613281 2.828125 -4.0625 C 2.054688 -5.507812 1.671875 -7.25 1.671875 -9.28125 C 1.671875 -11.320312 2.054688 -13.066406 2.828125 -14.515625 C 3.609375 -15.960938 4.679688 -17.0625 6.046875 -17.8125 C 7.421875 -18.5625 8.988281 -18.9375 10.75 -18.9375 C 14.664062 -18.9375 17.175781 -17.515625 18.28125 -14.671875 L 15.078125 -12.375 L 14.71875 -12.375 C 14.34375 -13.257812 13.847656 -13.910156 13.234375 -14.328125 C 12.617188 -14.753906 11.789062 -14.96875 10.75 -14.96875 C 9.394531 -14.96875 8.34375 -14.5 7.59375 -13.5625 C 6.84375 -12.632812 6.46875 -11.207031 6.46875 -9.28125 C 6.46875 -7.375 6.847656 -5.953125 7.609375 -5.015625 C 8.378906 -4.078125 9.453125 -3.609375 10.828125 -3.609375 C 11.835938 -3.609375 12.691406 -3.878906 13.390625 -4.421875 C 14.097656 -4.960938 14.601562 -5.742188 14.90625 -6.765625 L 15.265625 -6.8125 L 18.578125 -4.984375 C 18.109375 -3.410156 17.234375 -2.125 15.953125 -1.125 C 14.679688 -0.132812 12.972656 0.359375 10.828125 0.359375 Z M 10.828125 0.359375 "/></g></g></g><g fill="#ffffff" fill-opacity="1"><g transform="translate(262.115481, 194.259657)"><g><path d="M 18.359375 -8.234375 L 6.421875 -8.234375 C 6.554688 -6.617188 7.015625 -5.441406 7.796875 -4.703125 C 8.585938 -3.972656 9.660156 -3.609375 11.015625 -3.609375 C 12.085938 -3.609375 12.953125 -3.804688 13.609375 -4.203125 C 14.273438 -4.597656 14.8125 -5.203125 15.21875 -6.015625 L 15.5625 -6.015625 L 18.671875 -4.03125 C 18.054688 -2.726562 17.132812 -1.671875 15.90625 -0.859375 C 14.6875 -0.046875 13.054688 0.359375 11.015625 0.359375 C 9.097656 0.359375 7.4375 -0.00390625 6.03125 -0.734375 C 4.632812 -1.472656 3.554688 -2.5625 2.796875 -4 C 2.046875 -5.445312 1.671875 -7.207031 1.671875 -9.28125 C 1.671875 -11.394531 2.066406 -13.175781 2.859375 -14.625 C 3.660156 -16.070312 4.738281 -17.148438 6.09375 -17.859375 C 7.457031 -18.578125 8.988281 -18.9375 10.6875 -18.9375 C 13.3125 -18.9375 15.320312 -18.238281 16.71875 -16.84375 C 18.113281 -15.445312 18.8125 -13.40625 18.8125 -10.71875 C 18.8125 -9.738281 18.78125 -8.976562 18.71875 -8.4375 Z M 14.359375 -11.25 C 14.304688 -12.664062 13.972656 -13.695312 13.359375 -14.34375 C 12.753906 -14.988281 11.863281 -15.3125 10.6875 -15.3125 C 8.320312 -15.3125 6.929688 -13.957031 6.515625 -11.25 Z M 14.359375 -11.25 "/></g></g></g><g fill="#ffffff" fill-opacity="1"><g transform="translate(357.071674, 146.259659)"><g><path d="M 13.453125 0.359375 C 11.191406 0.359375 9.195312 -0.109375 7.46875 -1.046875 C 5.738281 -1.992188 4.382812 -3.414062 3.40625 -5.3125 C 2.425781 -7.207031 1.9375 -9.539062 1.9375 -12.3125 C 1.9375 -15.082031 2.425781 -17.414062 3.40625 -19.3125 C 4.382812 -21.207031 5.738281 -22.625 7.46875 -23.5625 C 9.195312 -24.507812 11.191406 -24.984375 13.453125 -24.984375 C 15.828125 -24.984375 17.84375 -24.519531 19.5 -23.59375 C 21.15625 -22.664062 22.335938 -21.253906 23.046875 -19.359375 L 19.484375 -17.1875 L 19.0625 -17.203125 C 18.539062 -18.484375 17.828125 -19.398438 16.921875 -19.953125 C 16.015625 -20.503906 14.859375 -20.78125 13.453125 -20.78125 C 11.410156 -20.78125 9.816406 -20.101562 8.671875 -18.75 C 7.523438 -17.40625 6.953125 -15.257812 6.953125 -12.3125 C 6.953125 -9.382812 7.523438 -7.242188 8.671875 -5.890625 C 9.816406 -4.535156 11.410156 -3.859375 13.453125 -3.859375 C 16.660156 -3.859375 18.625 -5.414062 19.34375 -8.53125 L 19.765625 -8.53125 L 23.34375 -6.65625 C 22.675781 -4.320312 21.523438 -2.566406 19.890625 -1.390625 C 18.265625 -0.222656 16.117188 0.359375 13.453125 0.359375 Z M 13.453125 0.359375 "/></g></g></g><g fill="#ffffff" fill-opacity="1"><g transform="translate(381.220206, 146.259659)"><g><path d="M 7.71875 0.359375 C 6.039062 0.359375 4.757812 -0.09375 3.875 -1 C 3 -1.90625 2.5625 -3.28125 2.5625 -5.125 L 2.5625 -26.046875 L 7.234375 -26.046875 L 7.234375 -5.3125 C 7.234375 -4.175781 7.703125 -3.609375 8.640625 -3.609375 C 8.910156 -3.609375 9.195312 -3.648438 9.5 -3.734375 L 9.734375 -3.671875 L 10.15625 -0.078125 C 9.894531 0.0546875 9.550781 0.160156 9.125 0.234375 C 8.695312 0.316406 8.226562 0.359375 7.71875 0.359375 Z M 7.71875 0.359375 "/></g></g></g><g fill="#ffffff" fill-opacity="1"><g transform="translate(391.896754, 146.259659)"><g><path d="M 5 -20.796875 C 4.15625 -20.796875 3.46875 -21.050781 2.9375 -21.5625 C 2.414062 -22.082031 2.15625 -22.742188 2.15625 -23.546875 C 2.15625 -24.347656 2.414062 -25.003906 2.9375 -25.515625 C 3.46875 -26.023438 4.15625 -26.28125 5 -26.28125 C 5.5625 -26.28125 6.0625 -26.160156 6.5 -25.921875 C 6.9375 -25.691406 7.273438 -25.367188 7.515625 -24.953125 C 7.765625 -24.546875 7.890625 -24.078125 7.890625 -23.546875 C 7.890625 -23.023438 7.765625 -22.554688 7.515625 -22.140625 C 7.273438 -21.722656 6.9375 -21.394531 6.5 -21.15625 C 6.0625 -20.914062 5.5625 -20.796875 5 -20.796875 Z M 2.671875 0 L 2.671875 -18.578125 L 7.34375 -18.578125 L 7.34375 0 Z M 2.671875 0 "/></g></g></g><g fill="#ffffff" fill-opacity="1"><g transform="translate(401.899702, 146.259659)"><g><path d="M 2.671875 0 L 2.671875 -18.578125 L 7.15625 -18.578125 L 7.15625 -15.859375 L 7.515625 -15.765625 C 8.671875 -17.878906 10.546875 -18.9375 13.140625 -18.9375 C 15.285156 -18.9375 16.859375 -18.351562 17.859375 -17.1875 C 18.867188 -16.019531 19.375 -14.316406 19.375 -12.078125 L 19.375 0 L 14.703125 0 L 14.703125 -11.5 C 14.703125 -12.738281 14.453125 -13.628906 13.953125 -14.171875 C 13.460938 -14.722656 12.675781 -15 11.59375 -15 C 10.25 -15 9.203125 -14.566406 8.453125 -13.703125 C 7.710938 -12.835938 7.34375 -11.476562 7.34375 -9.625 L 7.34375 0 Z M 2.671875 0 "/></g></g></g><g fill="#ffffff" fill-opacity="1"><g transform="translate(423.656957, 146.259659)"><g><path d="M 5 -20.796875 C 4.15625 -20.796875 3.46875 -21.050781 2.9375 -21.5625 C 2.414062 -22.082031 2.15625 -22.742188 2.15625 -23.546875 C 2.15625 -24.347656 2.414062 -25.003906 2.9375 -25.515625 C 3.46875 -26.023438 4.15625 -26.28125 5 -26.28125 C 5.5625 -26.28125 6.0625 -26.160156 6.5 -25.921875 C 6.9375 -25.691406 7.273438 -25.367188 7.515625 -24.953125 C 7.765625 -24.546875 7.890625 -24.078125 7.890625 -23.546875 C 7.890625 -23.023438 7.765625 -22.554688 7.515625 -22.140625 C 7.273438 -21.722656 6.9375 -21.394531 6.5 -21.15625 C 6.0625 -20.914062 5.5625 -20.796875 5 -20.796875 Z M 2.671875 0 L 2.671875 -18.578125 L 7.34375 -18.578125 L 7.34375 0 Z M 2.671875 0 "/></g></g></g><g fill="#ffffff" fill-opacity="1"><g transform="translate(433.659905, 146.259659)"><g><path d="M 10.828125 0.359375 C 9.035156 0.359375 7.445312 -0.015625 6.0625 -0.765625 C 4.6875 -1.515625 3.609375 -2.613281 2.828125 -4.0625 C 2.054688 -5.507812 1.671875 -7.25 1.671875 -9.28125 C 1.671875 -11.320312 2.054688 -13.066406 2.828125 -14.515625 C 3.609375 -15.960938 4.679688 -17.0625 6.046875 -17.8125 C 7.421875 -18.5625 8.988281 -18.9375 10.75 -18.9375 C 14.664062 -18.9375 17.175781 -17.515625 18.28125 -14.671875 L 15.078125 -12.375 L 14.71875 -12.375 C 14.34375 -13.257812 13.847656 -13.910156 13.234375 -14.328125 C 12.617188 -14.753906 11.789062 -14.96875 10.75 -14.96875 C 9.394531 -14.96875 8.34375 -14.5 7.59375 -13.5625 C 6.84375 -12.632812 6.46875 -11.207031 6.46875 -9.28125 C 6.46875 -7.375 6.847656 -5.953125 7.609375 -5.015625 C 8.378906 -4.078125 9.453125 -3.609375 10.828125 -3.609375 C 11.835938 -3.609375 12.691406 -3.878906 13.390625 -4.421875 C 14.097656 -4.960938 14.601562 -5.742188 14.90625 -6.765625 L 15.265625 -6.8125 L 18.578125 -4.984375 C 18.109375 -3.410156 17.234375 -2.125 15.953125 -1.125 C 14.679688 -0.132812 12.972656 0.359375 10.828125 0.359375 Z M 10.828125 0.359375 "/></g></g></g><g fill="#ffffff" fill-opacity="1"><g transform="translate(452.806968, 146.259659)"><g><path d="M 7.25 0.359375 C 6.050781 0.359375 5.015625 0.140625 4.140625 -0.296875 C 3.265625 -0.734375 2.59375 -1.375 2.125 -2.21875 C 1.65625 -3.070312 1.421875 -4.097656 1.421875 -5.296875 C 1.421875 -6.390625 1.65625 -7.3125 2.125 -8.0625 C 2.59375 -8.8125 3.320312 -9.421875 4.3125 -9.890625 C 5.300781 -10.367188 6.59375 -10.738281 8.1875 -11 C 9.300781 -11.175781 10.144531 -11.367188 10.71875 -11.578125 C 11.300781 -11.796875 11.691406 -12.039062 11.890625 -12.3125 C 12.097656 -12.582031 12.203125 -12.925781 12.203125 -13.34375 C 12.203125 -13.9375 11.992188 -14.390625 11.578125 -14.703125 C 11.160156 -15.015625 10.46875 -15.171875 9.5 -15.171875 C 8.46875 -15.171875 7.484375 -14.941406 6.546875 -14.484375 C 5.617188 -14.023438 4.8125 -13.421875 4.125 -12.671875 L 3.796875 -12.671875 L 1.84375 -15.609375 C 2.78125 -16.660156 3.925781 -17.476562 5.28125 -18.0625 C 6.644531 -18.644531 8.128906 -18.9375 9.734375 -18.9375 C 12.191406 -18.9375 13.972656 -18.410156 15.078125 -17.359375 C 16.179688 -16.316406 16.734375 -14.835938 16.734375 -12.921875 L 16.734375 -4.859375 C 16.734375 -4.023438 17.097656 -3.609375 17.828125 -3.609375 C 18.109375 -3.609375 18.378906 -3.65625 18.640625 -3.75 L 18.890625 -3.6875 L 19.21875 -0.4375 C 18.957031 -0.269531 18.597656 -0.128906 18.140625 -0.015625 C 17.679688 0.0859375 17.175781 0.140625 16.625 0.140625 C 15.507812 0.140625 14.640625 -0.0703125 14.015625 -0.5 C 13.398438 -0.925781 12.957031 -1.597656 12.6875 -2.515625 L 12.328125 -2.546875 C 11.421875 -0.609375 9.726562 0.359375 7.25 0.359375 Z M 8.71875 -3.140625 C 9.800781 -3.140625 10.664062 -3.5 11.3125 -4.21875 C 11.957031 -4.945312 12.28125 -5.957031 12.28125 -7.25 L 12.28125 -9.125 L 11.953125 -9.203125 C 11.679688 -8.972656 11.316406 -8.78125 10.859375 -8.625 C 10.398438 -8.476562 9.742188 -8.332031 8.890625 -8.1875 C 7.878906 -8.019531 7.148438 -7.726562 6.703125 -7.3125 C 6.265625 -6.90625 6.046875 -6.328125 6.046875 -5.578125 C 6.046875 -4.773438 6.28125 -4.164062 6.75 -3.75 C 7.226562 -3.34375 7.882812 -3.140625 8.71875 -3.140625 Z M 8.71875 -3.140625 "/></g></g></g><g fill="#ffffff" fill-opacity="1"><g transform="translate(472.391871, 146.259659)"><g><path d="M 7.71875 0.359375 C 6.039062 0.359375 4.757812 -0.09375 3.875 -1 C 3 -1.90625 2.5625 -3.28125 2.5625 -5.125 L 2.5625 -26.046875 L 7.234375 -26.046875 L 7.234375 -5.3125 C 7.234375 -4.175781 7.703125 -3.609375 8.640625 -3.609375 C 8.910156 -3.609375 9.195312 -3.648438 9.5 -3.734375 L 9.734375 -3.671875 L 10.15625 -0.078125 C 9.894531 0.0546875 9.550781 0.160156 9.125 0.234375 C 8.695312 0.316406 8.226562 0.359375 7.71875 0.359375 Z M 7.71875 0.359375 "/></g></g></g><g fill="#ffffff" fill-opacity="1"><g transform="translate(326.895894, 194.259657)"><g><path d="M 18.359375 -8.234375 L 6.421875 -8.234375 C 6.554688 -6.617188 7.015625 -5.441406 7.796875 -4.703125 C 8.585938 -3.972656 9.660156 -3.609375 11.015625 -3.609375 C 12.085938 -3.609375 12.953125 -3.804688 13.609375 -4.203125 C 14.273438 -4.597656 14.8125 -5.203125 15.21875 -6.015625 L 15.5625 -6.015625 L 18.671875 -4.03125 C 18.054688 -2.726562 17.132812 -1.671875 15.90625 -0.859375 C 14.6875 -0.046875 13.054688 0.359375 11.015625 0.359375 C 9.097656 0.359375 7.4375 -0.00390625 6.03125 -0.734375 C 4.632812 -1.472656 3.554688 -2.5625 2.796875 -4 C 2.046875 -5.445312 1.671875 -7.207031 1.671875 -9.28125 C 1.671875 -11.394531 2.066406 -13.175781 2.859375 -14.625 C 3.660156 -16.070312 4.738281 -17.148438 6.09375 -17.859375 C 7.457031 -18.578125 8.988281 -18.9375 10.6875 -18.9375 C 13.3125 -18.9375 15.320312 -18.238281 16.71875 -16.84375 C 18.113281 -15.445312 18.8125 -13.40625 18.8125 -10.71875 C 18.8125 -9.738281 18.78125 -8.976562 18.71875 -8.4375 Z M 14.359375 -11.25 C 14.304688 -12.664062 13.972656 -13.695312 13.359375 -14.34375 C 12.753906 -14.988281 11.863281 -15.3125 10.6875 -15.3125 C 8.320312 -15.3125 6.929688 -13.957031 6.515625 -11.25 Z M 14.359375 -11.25 "/></g></g></g><g fill="#ffffff" fill-opacity="1"><g transform="translate(347.087036, 194.259657)"><g><path d="M 5.234375 0 L 0.3125 0 L 5.625 -9.640625 L 0.609375 -18.578125 L 5.59375 -18.578125 L 8.8125 -12.46875 L 9.203125 -12.46875 L 12.4375 -18.578125 L 17.265625 -18.578125 L 12.40625 -9.640625 L 17.546875 0 L 12.578125 0 L 9.078125 -6.78125 L 8.6875 -6.78125 Z M 5.234375 0 "/></g></g></g><g fill="#ffffff" fill-opacity="1"><g transform="translate(364.954262, 194.259657)"><g><path d="M 2.671875 7.53125 L 2.671875 -18.578125 L 7.34375 -18.578125 L 7.34375 -16.15625 L 7.703125 -16.09375 C 8.253906 -17.03125 8.988281 -17.738281 9.90625 -18.21875 C 10.820312 -18.695312 11.898438 -18.9375 13.140625 -18.9375 C 14.628906 -18.9375 15.929688 -18.582031 17.046875 -17.875 C 18.171875 -17.164062 19.046875 -16.085938 19.671875 -14.640625 C 20.296875 -13.203125 20.609375 -11.414062 20.609375 -9.28125 C 20.609375 -7.15625 20.273438 -5.375 19.609375 -3.9375 C 18.953125 -2.5 18.039062 -1.421875 16.875 -0.703125 C 15.707031 0.00390625 14.363281 0.359375 12.84375 0.359375 C 11.675781 0.359375 10.671875 0.164062 9.828125 -0.21875 C 8.992188 -0.613281 8.285156 -1.21875 7.703125 -2.03125 L 7.34375 -1.96875 L 7.34375 7.53125 Z M 11.546875 -3.609375 C 12.929688 -3.609375 13.984375 -4.0625 14.703125 -4.96875 C 15.421875 -5.875 15.78125 -7.3125 15.78125 -9.28125 C 15.78125 -11.25 15.421875 -12.6875 14.703125 -13.59375 C 13.984375 -14.507812 12.929688 -14.96875 11.546875 -14.96875 C 10.234375 -14.96875 9.195312 -14.492188 8.4375 -13.546875 C 7.675781 -12.609375 7.296875 -11.1875 7.296875 -9.28125 C 7.296875 -7.382812 7.675781 -5.960938 8.4375 -5.015625 C 9.195312 -4.078125 10.234375 -3.609375 11.546875 -3.609375 Z M 11.546875 -3.609375 "/></g></g></g><g fill="#ffffff" fill-opacity="1"><g transform="translate(387.199882, 194.259657)"><g><path d="M 18.359375 -8.234375 L 6.421875 -8.234375 C 6.554688 -6.617188 7.015625 -5.441406 7.796875 -4.703125 C 8.585938 -3.972656 9.660156 -3.609375 11.015625 -3.609375 C 12.085938 -3.609375 12.953125 -3.804688 13.609375 -4.203125 C 14.273438 -4.597656 14.8125 -5.203125 15.21875 -6.015625 L 15.5625 -6.015625 L 18.671875 -4.03125 C 18.054688 -2.726562 17.132812 -1.671875 15.90625 -0.859375 C 14.6875 -0.046875 13.054688 0.359375 11.015625 0.359375 C 9.097656 0.359375 7.4375 -0.00390625 6.03125 -0.734375 C 4.632812 -1.472656 3.554688 -2.5625 2.796875 -4 C 2.046875 -5.445312 1.671875 -7.207031 1.671875 -9.28125 C 1.671875 -11.394531 2.066406 -13.175781 2.859375 -14.625 C 3.660156 -16.070312 4.738281 -17.148438 6.09375 -17.859375 C 7.457031 -18.578125 8.988281 -18.9375 10.6875 -18.9375 C 13.3125 -18.9375 15.320312 -18.238281 16.71875 -16.84375 C 18.113281 -15.445312 18.8125 -13.40625 18.8125 -10.71875 C 18.8125 -9.738281 18.78125 -8.976562 18.71875 -8.4375 Z M 14.359375 -11.25 C 14.304688 -12.664062 13.972656 -13.695312 13.359375 -14.34375 C 12.753906 -14.988281 11.863281 -15.3125 10.6875 -15.3125 C 8.320312 -15.3125 6.929688 -13.957031 6.515625 -11.25 Z M 14.359375 -11.25 "/></g></g></g><g fill="#ffffff" fill-opacity="1"><g transform="translate(407.391024, 194.259657)"><g><path d="M 2.671875 0 L 2.671875 -18.578125 L 7.203125 -18.578125 L 7.203125 -15.8125 L 7.5625 -15.75 C 8.007812 -16.78125 8.597656 -17.535156 9.328125 -18.015625 C 10.054688 -18.503906 10.945312 -18.75 12 -18.75 C 13.050781 -18.75 13.851562 -18.566406 14.40625 -18.203125 L 13.609375 -14.1875 L 13.25 -14.109375 C 12.945312 -14.234375 12.65625 -14.320312 12.375 -14.375 C 12.09375 -14.4375 11.753906 -14.46875 11.359375 -14.46875 C 10.054688 -14.46875 9.0625 -14.007812 8.375 -13.09375 C 7.6875 -12.175781 7.34375 -10.707031 7.34375 -8.6875 L 7.34375 0 Z M 2.671875 0 "/></g></g></g><g fill="#ffffff" fill-opacity="1"><g transform="translate(421.957612, 194.259657)"><g><path d="M 5 -20.796875 C 4.15625 -20.796875 3.46875 -21.050781 2.9375 -21.5625 C 2.414062 -22.082031 2.15625 -22.742188 2.15625 -23.546875 C 2.15625 -24.347656 2.414062 -25.003906 2.9375 -25.515625 C 3.46875 -26.023438 4.15625 -26.28125 5 -26.28125 C 5.5625 -26.28125 6.0625 -26.160156 6.5 -25.921875 C 6.9375 -25.691406 7.273438 -25.367188 7.515625 -24.953125 C 7.765625 -24.546875 7.890625 -24.078125 7.890625 -23.546875 C 7.890625 -23.023438 7.765625 -22.554688 7.515625 -22.140625 C 7.273438 -21.722656 6.9375 -21.394531 6.5 -21.15625 C 6.0625 -20.914062 5.5625 -20.796875 5 -20.796875 Z M 2.671875 0 L 2.671875 -18.578125 L 7.34375 -18.578125 L 7.34375 0 Z M 2.671875 0 "/></g></g></g><g fill="#ffffff" fill-opacity="1"><g transform="translate(431.960561, 194.259657)"><g><path d="M 18.359375 -8.234375 L 6.421875 -8.234375 C 6.554688 -6.617188 7.015625 -5.441406 7.796875 -4.703125 C 8.585938 -3.972656 9.660156 -3.609375 11.015625 -3.609375 C 12.085938 -3.609375 12.953125 -3.804688 13.609375 -4.203125 C 14.273438 -4.597656 14.8125 -5.203125 15.21875 -6.015625 L 15.5625 -6.015625 L 18.671875 -4.03125 C 18.054688 -2.726562 17.132812 -1.671875 15.90625 -0.859375 C 14.6875 -0.046875 13.054688 0.359375 11.015625 0.359375 C 9.097656 0.359375 7.4375 -0.00390625 6.03125 -0.734375 C 4.632812 -1.472656 3.554688 -2.5625 2.796875 -4 C 2.046875 -5.445312 1.671875 -7.207031 1.671875 -9.28125 C 1.671875 -11.394531 2.066406 -13.175781 2.859375 -14.625 C 3.660156 -16.070312 4.738281 -17.148438 6.09375 -17.859375 C 7.457031 -18.578125 8.988281 -18.9375 10.6875 -18.9375 C 13.3125 -18.9375 15.320312 -18.238281 16.71875 -16.84375 C 18.113281 -15.445312 18.8125 -13.40625 18.8125 -10.71875 C 18.8125 -9.738281 18.78125 -8.976562 18.71875 -8.4375 Z M 14.359375 -11.25 C 14.304688 -12.664062 13.972656 -13.695312 13.359375 -14.34375 C 12.753906 -14.988281 11.863281 -15.3125 10.6875 -15.3125 C 8.320312 -15.3125 6.929688 -13.957031 6.515625 -11.25 Z M 14.359375 -11.25 "/></g></g></g><g fill="#ffffff" fill-opacity="1"><g transform="translate(452.151703, 194.259657)"><g><path d="M 2.671875 0 L 2.671875 -18.578125 L 7.15625 -18.578125 L 7.15625 -15.859375 L 7.515625 -15.765625 C 8.671875 -17.878906 10.546875 -18.9375 13.140625 -18.9375 C 15.285156 -18.9375 16.859375 -18.351562 17.859375 -17.1875 C 18.867188 -16.019531 19.375 -14.316406 19.375 -12.078125 L 19.375 0 L 14.703125 0 L 14.703125 -11.5 C 14.703125 -12.738281 14.453125 -13.628906 13.953125 -14.171875 C 13.460938 -14.722656 12.675781 -15 11.59375 -15 C 10.25 -15 9.203125 -14.566406 8.453125 -13.703125 C 7.710938 -12.835938 7.34375 -11.476562 7.34375 -9.625 L 7.34375 0 Z M 2.671875 0 "/></g></g></g><g fill="#ffffff" fill-opacity="1"><g transform="translate(473.908957, 194.259657)"><g><path d="M 10.828125 0.359375 C 9.035156 0.359375 7.445312 -0.015625 6.0625 -0.765625 C 4.6875 -1.515625 3.609375 -2.613281 2.828125 -4.0625 C 2.054688 -5.507812 1.671875 -7.25 1.671875 -9.28125 C 1.671875 -11.320312 2.054688 -13.066406 2.828125 -14.515625 C 3.609375 -15.960938 4.679688 -17.0625 6.046875 -17.8125 C 7.421875 -18.5625 8.988281 -18.9375 10.75 -18.9375 C 14.664062 -18.9375 17.175781 -17.515625 18.28125 -14.671875 L 15.078125 -12.375 L 14.71875 -12.375 C 14.34375 -13.257812 13.847656 -13.910156 13.234375 -14.328125 C 12.617188 -14.753906 11.789062 -14.96875 10.75 -14.96875 C 9.394531 -14.96875 8.34375 -14.5 7.59375 -13.5625 C 6.84375 -12.632812 6.46875 -11.207031 6.46875 -9.28125 C 6.46875 -7.375 6.847656 -5.953125 7.609375 -5.015625 C 8.378906 -4.078125 9.453125 -3.609375 10.828125 -3.609375 C 11.835938 -3.609375 12.691406 -3.878906 13.390625 -4.421875 C 14.097656 -4.960938 14.601562 -5.742188 14.90625 -6.765625 L 15.265625 -6.8125 L 18.578125 -4.984375 C 18.109375 -3.410156 17.234375 -2.125 15.953125 -1.125 C 14.679688 -0.132812 12.972656 0.359375 10.828125 0.359375 Z M 10.828125 0.359375 "/></g></g></g><g fill="#ffffff" fill-opacity="1"><g transform="translate(493.056021, 194.259657)"><g><path d="M 18.359375 -8.234375 L 6.421875 -8.234375 C 6.554688 -6.617188 7.015625 -5.441406 7.796875 -4.703125 C 8.585938 -3.972656 9.660156 -3.609375 11.015625 -3.609375 C 12.085938 -3.609375 12.953125 -3.804688 13.609375 -4.203125 C 14.273438 -4.597656 14.8125 -5.203125 15.21875 -6.015625 L 15.5625 -6.015625 L 18.671875 -4.03125 C 18.054688 -2.726562 17.132812 -1.671875 15.90625 -0.859375 C 14.6875 -0.046875 13.054688 0.359375 11.015625 0.359375 C 9.097656 0.359375 7.4375 -0.00390625 6.03125 -0.734375 C 4.632812 -1.472656 3.554688 -2.5625 2.796875 -4 C 2.046875 -5.445312 1.671875 -7.207031 1.671875 -9.28125 C 1.671875 -11.394531 2.066406 -13.175781 2.859375 -14.625 C 3.660156 -16.070312 4.738281 -17.148438 6.09375 -17.859375 C 7.457031 -18.578125 8.988281 -18.9375 10.6875 -18.9375 C 13.3125 -18.9375 15.320312 -18.238281 16.71875 -16.84375 C 18.113281 -15.445312 18.8125 -13.40625 18.8125 -10.71875 C 18.8125 -9.738281 18.78125 -8.976562 18.71875 -8.4375 Z M 14.359375 -11.25 C 14.304688 -12.664062 13.972656 -13.695312 13.359375 -14.34375 C 12.753906 -14.988281 11.863281 -15.3125 10.6875 -15.3125 C 8.320312 -15.3125 6.929688 -13.957031 6.515625 -11.25 Z M 14.359375 -11.25 "/></g></g></g><g fill="#ffffff" fill-opacity="1"><g transform="translate(240.371299, 483.464999)"><g><path d="M 19.109375 -15.359375 L 19.109375 -24.625 L 23.953125 -24.625 L 23.953125 0 L 19.109375 0 L 19.109375 -11.21875 L 8.0625 -11.21875 L 8.0625 0 L 3.203125 0 L 3.203125 -24.625 L 8.0625 -24.625 L 8.0625 -15.359375 Z M 19.109375 -15.359375 "/></g></g></g><g fill="#ffffff" fill-opacity="1"><g transform="translate(267.534194, 483.464999)"><g><path d="M 18.359375 -8.234375 L 6.421875 -8.234375 C 6.554688 -6.617188 7.015625 -5.441406 7.796875 -4.703125 C 8.585938 -3.972656 9.660156 -3.609375 11.015625 -3.609375 C 12.085938 -3.609375 12.953125 -3.804688 13.609375 -4.203125 C 14.273438 -4.597656 14.8125 -5.203125 15.21875 -6.015625 L 15.5625 -6.015625 L 18.671875 -4.03125 C 18.054688 -2.726562 17.132812 -1.671875 15.90625 -0.859375 C 14.6875 -0.046875 13.054688 0.359375 11.015625 0.359375 C 9.097656 0.359375 7.4375 -0.00390625 6.03125 -0.734375 C 4.632812 -1.472656 3.554688 -2.5625 2.796875 -4 C 2.046875 -5.445312 1.671875 -7.207031 1.671875 -9.28125 C 1.671875 -11.394531 2.066406 -13.175781 2.859375 -14.625 C 3.660156 -16.070312 4.738281 -17.148438 6.09375 -17.859375 C 7.457031 -18.578125 8.988281 -18.9375 10.6875 -18.9375 C 13.3125 -18.9375 15.320312 -18.238281 16.71875 -16.84375 C 18.113281 -15.445312 18.8125 -13.40625 18.8125 -10.71875 C 18.8125 -9.738281 18.78125 -8.976562 18.71875 -8.4375 Z M 14.359375 -11.25 C 14.304688 -12.664062 13.972656 -13.695312 13.359375 -14.34375 C 12.753906 -14.988281 11.863281 -15.3125 10.6875 -15.3125 C 8.320312 -15.3125 6.929688 -13.957031 6.515625 -11.25 Z M 14.359375 -11.25 "/></g></g></g><g fill="#ffffff" fill-opacity="1"><g transform="translate(287.725336, 483.464999)"><g><path d="M 7.25 0.359375 C 6.050781 0.359375 5.015625 0.140625 4.140625 -0.296875 C 3.265625 -0.734375 2.59375 -1.375 2.125 -2.21875 C 1.65625 -3.070312 1.421875 -4.097656 1.421875 -5.296875 C 1.421875 -6.390625 1.65625 -7.3125 2.125 -8.0625 C 2.59375 -8.8125 3.320312 -9.421875 4.3125 -9.890625 C 5.300781 -10.367188 6.59375 -10.738281 8.1875 -11 C 9.300781 -11.175781 10.144531 -11.367188 10.71875 -11.578125 C 11.300781 -11.796875 11.691406 -12.039062 11.890625 -12.3125 C 12.097656 -12.582031 12.203125 -12.925781 12.203125 -13.34375 C 12.203125 -13.9375 11.992188 -14.390625 11.578125 -14.703125 C 11.160156 -15.015625 10.46875 -15.171875 9.5 -15.171875 C 8.46875 -15.171875 7.484375 -14.941406 6.546875 -14.484375 C 5.617188 -14.023438 4.8125 -13.421875 4.125 -12.671875 L 3.796875 -12.671875 L 1.84375 -15.609375 C 2.78125 -16.660156 3.925781 -17.476562 5.28125 -18.0625 C 6.644531 -18.644531 8.128906 -18.9375 9.734375 -18.9375 C 12.191406 -18.9375 13.972656 -18.410156 15.078125 -17.359375 C 16.179688 -16.316406 16.734375 -14.835938 16.734375 -12.921875 L 16.734375 -4.859375 C 16.734375 -4.023438 17.097656 -3.609375 17.828125 -3.609375 C 18.109375 -3.609375 18.378906 -3.65625 18.640625 -3.75 L 18.890625 -3.6875 L 19.21875 -0.4375 C 18.957031 -0.269531 18.597656 -0.128906 18.140625 -0.015625 C 17.679688 0.0859375 17.175781 0.140625 16.625 0.140625 C 15.507812 0.140625 14.640625 -0.0703125 14.015625 -0.5 C 13.398438 -0.925781 12.957031 -1.597656 12.6875 -2.515625 L 12.328125 -2.546875 C 11.421875 -0.609375 9.726562 0.359375 7.25 0.359375 Z M 8.71875 -3.140625 C 9.800781 -3.140625 10.664062 -3.5 11.3125 -4.21875 C 11.957031 -4.945312 12.28125 -5.957031 12.28125 -7.25 L 12.28125 -9.125 L 11.953125 -9.203125 C 11.679688 -8.972656 11.316406 -8.78125 10.859375 -8.625 C 10.398438 -8.476562 9.742188 -8.332031 8.890625 -8.1875 C 7.878906 -8.019531 7.148438 -7.726562 6.703125 -7.3125 C 6.265625 -6.90625 6.046875 -6.328125 6.046875 -5.578125 C 6.046875 -4.773438 6.28125 -4.164062 6.75 -3.75 C 7.226562 -3.34375 7.882812 -3.140625 8.71875 -3.140625 Z M 8.71875 -3.140625 "/></g></g></g><g fill="#ffffff" fill-opacity="1"><g transform="translate(307.310239, 483.464999)"><g><path d="M 7.71875 0.359375 C 6.039062 0.359375 4.757812 -0.09375 3.875 -1 C 3 -1.90625 2.5625 -3.28125 2.5625 -5.125 L 2.5625 -26.046875 L 7.234375 -26.046875 L 7.234375 -5.3125 C 7.234375 -4.175781 7.703125 -3.609375 8.640625 -3.609375 C 8.910156 -3.609375 9.195312 -3.648438 9.5 -3.734375 L 9.734375 -3.671875 L 10.15625 -0.078125 C 9.894531 0.0546875 9.550781 0.160156 9.125 0.234375 C 8.695312 0.316406 8.226562 0.359375 7.71875 0.359375 Z M 7.71875 0.359375 "/></g></g></g><g fill="#ffffff" fill-opacity="1"><g transform="translate(317.986786, 483.464999)"><g><path d="M 12.8125 -4.4375 L 14.03125 -0.984375 C 13.53125 -0.566406 12.894531 -0.238281 12.125 0 C 11.363281 0.238281 10.5 0.359375 9.53125 0.359375 C 7.519531 0.359375 5.992188 -0.1875 4.953125 -1.28125 C 3.910156 -2.382812 3.390625 -3.976562 3.390625 -6.0625 L 3.390625 -14.890625 L 0.5625 -14.890625 L 0.5625 -18.59375 L 3.390625 -18.59375 L 3.390625 -22.21875 L 8.046875 -22.984375 L 8.046875 -18.59375 L 13.328125 -18.59375 L 13.328125 -14.890625 L 8.046875 -14.890625 L 8.046875 -6.40625 C 8.046875 -5.476562 8.238281 -4.800781 8.625 -4.375 C 9.007812 -3.957031 9.566406 -3.75 10.296875 -3.75 C 11.128906 -3.75 11.851562 -3.976562 12.46875 -4.4375 Z M 12.8125 -4.4375 "/></g></g></g><g fill="#ffffff" fill-opacity="1"><g transform="translate(332.418655, 483.464999)"><g><path d="M 2.671875 0 L 2.671875 -26.046875 L 7.34375 -26.046875 L 7.34375 -16.15625 L 7.703125 -16.09375 C 8.316406 -17 9.070312 -17.695312 9.96875 -18.1875 C 10.875 -18.6875 11.957031 -18.9375 13.21875 -18.9375 C 17.320312 -18.9375 19.375 -16.609375 19.375 -11.953125 L 19.375 0 L 14.703125 0 L 14.703125 -11.375 C 14.703125 -12.644531 14.445312 -13.566406 13.9375 -14.140625 C 13.4375 -14.710938 12.65625 -15 11.59375 -15 C 10.289062 -15 9.253906 -14.5625 8.484375 -13.6875 C 7.722656 -12.8125 7.34375 -11.457031 7.34375 -9.625 L 7.34375 0 Z M 2.671875 0 "/></g></g></g><g fill="#ffffff" fill-opacity="1"><g transform="translate(354.183795, 483.464999)"><g/></g></g><g fill="#ffffff" fill-opacity="1"><g transform="translate(246.699424, 531.464997)"><g><path d="M 8.0625 -10.8125 L 8.0625 -4.078125 L 19.828125 -4.078125 L 19.828125 0 L 3.203125 0 L 3.203125 -24.625 L 19.5625 -24.625 L 19.5625 -20.546875 L 8.0625 -20.546875 L 8.0625 -14.796875 L 18.109375 -14.796875 L 18.109375 -10.8125 Z M 8.0625 -10.8125 "/></g></g></g><g fill="#ffffff" fill-opacity="1"><g transform="translate(267.867285, 531.464997)"><g><path d="M 14.921875 7.53125 L 14.921875 -2.21875 L 14.578125 -2.296875 C 13.453125 -0.523438 11.648438 0.359375 9.171875 0.359375 C 7.703125 0.359375 6.40625 0.00390625 5.28125 -0.703125 C 4.15625 -1.410156 3.269531 -2.484375 2.625 -3.921875 C 1.988281 -5.359375 1.671875 -7.128906 1.671875 -9.234375 C 1.671875 -11.378906 2 -13.175781 2.65625 -14.625 C 3.3125 -16.070312 4.21875 -17.148438 5.375 -17.859375 C 6.539062 -18.578125 7.890625 -18.9375 9.421875 -18.9375 C 10.578125 -18.9375 11.582031 -18.722656 12.4375 -18.296875 C 13.300781 -17.867188 14.015625 -17.203125 14.578125 -16.296875 L 14.921875 -16.359375 L 14.921875 -18.578125 L 19.59375 -18.578125 L 19.59375 7.53125 Z M 10.703125 -3.609375 C 12.015625 -3.609375 13.050781 -4.070312 13.8125 -5 C 14.570312 -5.9375 14.953125 -7.347656 14.953125 -9.234375 C 14.953125 -11.160156 14.570312 -12.597656 13.8125 -13.546875 C 13.050781 -14.492188 12.015625 -14.96875 10.703125 -14.96875 C 9.316406 -14.96875 8.265625 -14.507812 7.546875 -13.59375 C 6.828125 -12.675781 6.46875 -11.222656 6.46875 -9.234375 C 6.46875 -5.484375 7.878906 -3.609375 10.703125 -3.609375 Z M 10.703125 -3.609375 "/></g></g></g><g fill="#ffffff" fill-opacity="1"><g transform="translate(290.129739, 531.464997)"><g><path d="M 8.5 0.359375 C 6.414062 0.359375 4.875 -0.207031 3.875 -1.34375 C 2.882812 -2.488281 2.390625 -4.128906 2.390625 -6.265625 L 2.390625 -18.578125 L 7.0625 -18.578125 L 7.0625 -6.859375 C 7.0625 -5.722656 7.304688 -4.894531 7.796875 -4.375 C 8.285156 -3.851562 9.039062 -3.59375 10.0625 -3.59375 C 11.351562 -3.59375 12.359375 -4.015625 13.078125 -4.859375 C 13.796875 -5.703125 14.15625 -7.035156 14.15625 -8.859375 L 14.15625 -18.578125 L 18.8125 -18.578125 L 18.8125 0 L 14.328125 0 L 14.328125 -2.734375 L 13.984375 -2.8125 C 13.390625 -1.75 12.660156 -0.953125 11.796875 -0.421875 C 10.941406 0.0976562 9.84375 0.359375 8.5 0.359375 Z M 8.5 0.359375 "/></g></g></g><g fill="#ffffff" fill-opacity="1"><g transform="translate(311.617554, 531.464997)"><g><path d="M 5 -20.796875 C 4.15625 -20.796875 3.46875 -21.050781 2.9375 -21.5625 C 2.414062 -22.082031 2.15625 -22.742188 2.15625 -23.546875 C 2.15625 -24.347656 2.414062 -25.003906 2.9375 -25.515625 C 3.46875 -26.023438 4.15625 -26.28125 5 -26.28125 C 5.5625 -26.28125 6.0625 -26.160156 6.5 -25.921875 C 6.9375 -25.691406 7.273438 -25.367188 7.515625 -24.953125 C 7.765625 -24.546875 7.890625 -24.078125 7.890625 -23.546875 C 7.890625 -23.023438 7.765625 -22.554688 7.515625 -22.140625 C 7.273438 -21.722656 6.9375 -21.394531 6.5 -21.15625 C 6.0625 -20.914062 5.5625 -20.796875 5 -20.796875 Z M 2.671875 0 L 2.671875 -18.578125 L 7.34375 -18.578125 L 7.34375 0 Z M 2.671875 0 "/></g></g></g><g fill="#ffffff" fill-opacity="1"><g transform="translate(321.620502, 531.464997)"><g><path d="M 12.8125 -4.4375 L 14.03125 -0.984375 C 13.53125 -0.566406 12.894531 -0.238281 12.125 0 C 11.363281 0.238281 10.5 0.359375 9.53125 0.359375 C 7.519531 0.359375 5.992188 -0.1875 4.953125 -1.28125 C 3.910156 -2.382812 3.390625 -3.976562 3.390625 -6.0625 L 3.390625 -14.890625 L 0.5625 -14.890625 L 0.5625 -18.59375 L 3.390625 -18.59375 L 3.390625 -22.21875 L 8.046875 -22.984375 L 8.046875 -18.59375 L 13.328125 -18.59375 L 13.328125 -14.890625 L 8.046875 -14.890625 L 8.046875 -6.40625 C 8.046875 -5.476562 8.238281 -4.800781 8.625 -4.375 C 9.007812 -3.957031 9.566406 -3.75 10.296875 -3.75 C 11.128906 -3.75 11.851562 -3.976562 12.46875 -4.4375 Z M 12.8125 -4.4375 "/></g></g></g><g fill="#ffffff" fill-opacity="1"><g transform="translate(336.052371, 531.464997)"><g><path d="M 4.109375 7.890625 C 3.316406 7.890625 2.597656 7.828125 1.953125 7.703125 C 1.304688 7.578125 0.78125 7.410156 0.375 7.203125 L 1.109375 3.4375 L 1.421875 3.328125 C 1.703125 3.472656 2.046875 3.59375 2.453125 3.6875 C 2.867188 3.78125 3.296875 3.828125 3.734375 3.828125 C 4.492188 3.828125 5.125 3.726562 5.625 3.53125 C 6.125 3.332031 6.546875 3.003906 6.890625 2.546875 C 7.234375 2.097656 7.539062 1.46875 7.8125 0.65625 L 0.40625 -18.578125 L 5.296875 -18.578125 L 9.90625 -5.65625 L 10.3125 -5.65625 L 14.8125 -18.578125 L 19.5625 -18.578125 L 12.09375 1.15625 C 11.5 2.75 10.84375 4.03125 10.125 5 C 9.414062 5.976562 8.578125 6.703125 7.609375 7.171875 C 6.640625 7.648438 5.472656 7.890625 4.109375 7.890625 Z M 4.109375 7.890625 "/></g></g></g><g fill="#ffffff" fill-opacity="1"><g transform="translate(216.793176, 299.444685)"><g><path d="M 19.578125 6.125 C 17.410156 6.125 15.609375 5.601562 14.171875 4.5625 C 12.742188 3.519531 11.78125 2.066406 11.28125 0.203125 C 9.40625 -0.0664062 7.769531 -0.703125 6.375 -1.703125 C 4.976562 -2.710938 3.890625 -4.101562 3.109375 -5.875 C 2.328125 -7.65625 1.9375 -9.800781 1.9375 -12.3125 C 1.9375 -15.132812 2.425781 -17.488281 3.40625 -19.375 C 4.382812 -21.269531 5.734375 -22.675781 7.453125 -23.59375 C 9.179688 -24.519531 11.171875 -24.984375 13.421875 -24.984375 C 15.679688 -24.984375 17.671875 -24.523438 19.390625 -23.609375 C 21.109375 -22.691406 22.453125 -21.285156 23.421875 -19.390625 C 24.390625 -17.492188 24.875 -15.132812 24.875 -12.3125 C 24.875 -8.625 24.082031 -5.796875 22.5 -3.828125 C 20.925781 -1.859375 18.71875 -0.632812 15.875 -0.15625 L 15.78125 0.1875 C 16.132812 0.78125 16.65625 1.234375 17.34375 1.546875 C 18.03125 1.867188 18.835938 2.03125 19.765625 2.03125 C 20.503906 2.03125 21.171875 1.9375 21.765625 1.75 L 22.109375 1.8125 L 22.796875 5.625 C 22.429688 5.757812 21.945312 5.875 21.34375 5.96875 C 20.738281 6.070312 20.148438 6.125 19.578125 6.125 Z M 13.421875 -3.875 C 15.515625 -3.875 17.109375 -4.546875 18.203125 -5.890625 C 19.304688 -7.234375 19.859375 -9.375 19.859375 -12.3125 C 19.859375 -15.257812 19.304688 -17.40625 18.203125 -18.75 C 17.109375 -20.09375 15.515625 -20.765625 13.421875 -20.765625 C 11.328125 -20.765625 9.722656 -20.09375 8.609375 -18.75 C 7.503906 -17.40625 6.953125 -15.257812 6.953125 -12.3125 C 6.953125 -9.375 7.503906 -7.234375 8.609375 -5.890625 C 9.722656 -4.546875 11.328125 -3.875 13.421875 -3.875 Z M 13.421875 -3.875 "/></g></g></g><g fill="#ffffff" fill-opacity="1"><g transform="translate(243.61927, 299.444685)"><g><path d="M 8.5 0.359375 C 6.414062 0.359375 4.875 -0.207031 3.875 -1.34375 C 2.882812 -2.488281 2.390625 -4.128906 2.390625 -6.265625 L 2.390625 -18.578125 L 7.0625 -18.578125 L 7.0625 -6.859375 C 7.0625 -5.722656 7.304688 -4.894531 7.796875 -4.375 C 8.285156 -3.851562 9.039062 -3.59375 10.0625 -3.59375 C 11.351562 -3.59375 12.359375 -4.015625 13.078125 -4.859375 C 13.796875 -5.703125 14.15625 -7.035156 14.15625 -8.859375 L 14.15625 -18.578125 L 18.8125 -18.578125 L 18.8125 0 L 14.328125 0 L 14.328125 -2.734375 L 13.984375 -2.8125 C 13.390625 -1.75 12.660156 -0.953125 11.796875 -0.421875 C 10.941406 0.0976562 9.84375 0.359375 8.5 0.359375 Z M 8.5 0.359375 "/></g></g></g><g fill="#ffffff" fill-opacity="1"><g transform="translate(265.107084, 299.444685)"><g><path d="M 5 -20.796875 C 4.15625 -20.796875 3.46875 -21.050781 2.9375 -21.5625 C 2.414062 -22.082031 2.15625 -22.742188 2.15625 -23.546875 C 2.15625 -24.347656 2.414062 -25.003906 2.9375 -25.515625 C 3.46875 -26.023438 4.15625 -26.28125 5 -26.28125 C 5.5625 -26.28125 6.0625 -26.160156 6.5 -25.921875 C 6.9375 -25.691406 7.273438 -25.367188 7.515625 -24.953125 C 7.765625 -24.546875 7.890625 -24.078125 7.890625 -23.546875 C 7.890625 -23.023438 7.765625 -22.554688 7.515625 -22.140625 C 7.273438 -21.722656 6.9375 -21.394531 6.5 -21.15625 C 6.0625 -20.914062 5.5625 -20.796875 5 -20.796875 Z M 2.671875 0 L 2.671875 -18.578125 L 7.34375 -18.578125 L 7.34375 0 Z M 2.671875 0 "/></g></g></g><g fill="#ffffff" fill-opacity="1"><g transform="translate(275.110033, 299.444685)"><g><path d="M 2.671875 0 L 2.671875 -18.578125 L 7.15625 -18.578125 L 7.15625 -15.859375 L 7.515625 -15.765625 C 8.671875 -17.878906 10.546875 -18.9375 13.140625 -18.9375 C 15.285156 -18.9375 16.859375 -18.351562 17.859375 -17.1875 C 18.867188 -16.019531 19.375 -14.316406 19.375 -12.078125 L 19.375 0 L 14.703125 0 L 14.703125 -11.5 C 14.703125 -12.738281 14.453125 -13.628906 13.953125 -14.171875 C 13.460938 -14.722656 12.675781 -15 11.59375 -15 C 10.25 -15 9.203125 -14.566406 8.453125 -13.703125 C 7.710938 -12.835938 7.34375 -11.476562 7.34375 -9.625 L 7.34375 0 Z M 2.671875 0 "/></g></g></g><g fill="#ffffff" fill-opacity="1"><g transform="translate(296.867287, 299.444685)"><g><path d="M 12.8125 -4.4375 L 14.03125 -0.984375 C 13.53125 -0.566406 12.894531 -0.238281 12.125 0 C 11.363281 0.238281 10.5 0.359375 9.53125 0.359375 C 7.519531 0.359375 5.992188 -0.1875 4.953125 -1.28125 C 3.910156 -2.382812 3.390625 -3.976562 3.390625 -6.0625 L 3.390625 -14.890625 L 0.5625 -14.890625 L 0.5625 -18.59375 L 3.390625 -18.59375 L 3.390625 -22.21875 L 8.046875 -22.984375 L 8.046875 -18.59375 L 13.328125 -18.59375 L 13.328125 -14.890625 L 8.046875 -14.890625 L 8.046875 -6.40625 C 8.046875 -5.476562 8.238281 -4.800781 8.625 -4.375 C 9.007812 -3.957031 9.566406 -3.75 10.296875 -3.75 C 11.128906 -3.75 11.851562 -3.976562 12.46875 -4.4375 Z M 12.8125 -4.4375 "/></g></g></g><g fill="#ffffff" fill-opacity="1"><g transform="translate(311.299156, 299.444685)"><g><path d="M 8.5 0.359375 C 6.414062 0.359375 4.875 -0.207031 3.875 -1.34375 C 2.882812 -2.488281 2.390625 -4.128906 2.390625 -6.265625 L 2.390625 -18.578125 L 7.0625 -18.578125 L 7.0625 -6.859375 C 7.0625 -5.722656 7.304688 -4.894531 7.796875 -4.375 C 8.285156 -3.851562 9.039062 -3.59375 10.0625 -3.59375 C 11.351562 -3.59375 12.359375 -4.015625 13.078125 -4.859375 C 13.796875 -5.703125 14.15625 -7.035156 14.15625 -8.859375 L 14.15625 -18.578125 L 18.8125 -18.578125 L 18.8125 0 L 14.328125 0 L 14.328125 -2.734375 L 13.984375 -2.8125 C 13.390625 -1.75 12.660156 -0.953125 11.796875 -0.421875 C 10.941406 0.0976562 9.84375 0.359375 8.5 0.359375 Z M 8.5 0.359375 "/></g></g></g><g fill="#ffffff" fill-opacity="1"><g transform="translate(332.786971, 299.444685)"><g><path d="M 2.671875 7.53125 L 2.671875 -18.578125 L 7.34375 -18.578125 L 7.34375 -16.15625 L 7.703125 -16.09375 C 8.253906 -17.03125 8.988281 -17.738281 9.90625 -18.21875 C 10.820312 -18.695312 11.898438 -18.9375 13.140625 -18.9375 C 14.628906 -18.9375 15.929688 -18.582031 17.046875 -17.875 C 18.171875 -17.164062 19.046875 -16.085938 19.671875 -14.640625 C 20.296875 -13.203125 20.609375 -11.414062 20.609375 -9.28125 C 20.609375 -7.15625 20.273438 -5.375 19.609375 -3.9375 C 18.953125 -2.5 18.039062 -1.421875 16.875 -0.703125 C 15.707031 0.00390625 14.363281 0.359375 12.84375 0.359375 C 11.675781 0.359375 10.671875 0.164062 9.828125 -0.21875 C 8.992188 -0.613281 8.285156 -1.21875 7.703125 -2.03125 L 7.34375 -1.96875 L 7.34375 7.53125 Z M 11.546875 -3.609375 C 12.929688 -3.609375 13.984375 -4.0625 14.703125 -4.96875 C 15.421875 -5.875 15.78125 -7.3125 15.78125 -9.28125 C 15.78125 -11.25 15.421875 -12.6875 14.703125 -13.59375 C 13.984375 -14.507812 12.929688 -14.96875 11.546875 -14.96875 C 10.234375 -14.96875 9.195312 -14.492188 8.4375 -13.546875 C 7.675781 -12.609375 7.296875 -11.1875 7.296875 -9.28125 C 7.296875 -7.382812 7.675781 -5.960938 8.4375 -5.015625 C 9.195312 -4.078125 10.234375 -3.609375 11.546875 -3.609375 Z M 11.546875 -3.609375 "/></g></g></g><g fill="#ffffff" fill-opacity="1"><g transform="translate(355.032591, 299.444685)"><g><path d="M 7.71875 0.359375 C 6.039062 0.359375 4.757812 -0.09375 3.875 -1 C 3 -1.90625 2.5625 -3.28125 2.5625 -5.125 L 2.5625 -26.046875 L 7.234375 -26.046875 L 7.234375 -5.3125 C 7.234375 -4.175781 7.703125 -3.609375 8.640625 -3.609375 C 8.910156 -3.609375 9.195312 -3.648438 9.5 -3.734375 L 9.734375 -3.671875 L 10.15625 -0.078125 C 9.894531 0.0546875 9.550781 0.160156 9.125 0.234375 C 8.695312 0.316406 8.226562 0.359375 7.71875 0.359375 Z M 7.71875 0.359375 "/></g></g></g><g fill="#ffffff" fill-opacity="1"><g transform="translate(365.709139, 299.444685)"><g><path d="M 18.359375 -8.234375 L 6.421875 -8.234375 C 6.554688 -6.617188 7.015625 -5.441406 7.796875 -4.703125 C 8.585938 -3.972656 9.660156 -3.609375 11.015625 -3.609375 C 12.085938 -3.609375 12.953125 -3.804688 13.609375 -4.203125 C 14.273438 -4.597656 14.8125 -5.203125 15.21875 -6.015625 L 15.5625 -6.015625 L 18.671875 -4.03125 C 18.054688 -2.726562 17.132812 -1.671875 15.90625 -0.859375 C 14.6875 -0.046875 13.054688 0.359375 11.015625 0.359375 C 9.097656 0.359375 7.4375 -0.00390625 6.03125 -0.734375 C 4.632812 -1.472656 3.554688 -2.5625 2.796875 -4 C 2.046875 -5.445312 1.671875 -7.207031 1.671875 -9.28125 C 1.671875 -11.394531 2.066406 -13.175781 2.859375 -14.625 C 3.660156 -16.070312 4.738281 -17.148438 6.09375 -17.859375 C 7.457031 -18.578125 8.988281 -18.9375 10.6875 -18.9375 C 13.3125 -18.9375 15.320312 -18.238281 16.71875 -16.84375 C 18.113281 -15.445312 18.8125 -13.40625 18.8125 -10.71875 C 18.8125 -9.738281 18.78125 -8.976562 18.71875 -8.4375 Z M 14.359375 -11.25 C 14.304688 -12.664062 13.972656 -13.695312 13.359375 -14.34375 C 12.753906 -14.988281 11.863281 -15.3125 10.6875 -15.3125 C 8.320312 -15.3125 6.929688 -13.957031 6.515625 -11.25 Z M 14.359375 -11.25 "/></g></g></g><g fill="#ffffff" fill-opacity="1"><g transform="translate(268.285361, 347.444683)"><g><path d="M 23.640625 0 L 18.515625 0 L 16.65625 -5.671875 L 7.234375 -5.671875 L 5.375 0 L 0.375 0 L 8.875 -24.625 L 15.125 -24.625 Z M 11.703125 -19.484375 L 8.546875 -9.765625 L 15.3125 -9.765625 L 12.125 -19.484375 Z M 11.703125 -19.484375 "/></g></g></g><g fill="#ffffff" fill-opacity="1"><g transform="translate(292.282339, 347.444683)"><g><path d="M 5 -20.796875 C 4.15625 -20.796875 3.46875 -21.050781 2.9375 -21.5625 C 2.414062 -22.082031 2.15625 -22.742188 2.15625 -23.546875 C 2.15625 -24.347656 2.414062 -25.003906 2.9375 -25.515625 C 3.46875 -26.023438 4.15625 -26.28125 5 -26.28125 C 5.5625 -26.28125 6.0625 -26.160156 6.5 -25.921875 C 6.9375 -25.691406 7.273438 -25.367188 7.515625 -24.953125 C 7.765625 -24.546875 7.890625 -24.078125 7.890625 -23.546875 C 7.890625 -23.023438 7.765625 -22.554688 7.515625 -22.140625 C 7.273438 -21.722656 6.9375 -21.394531 6.5 -21.15625 C 6.0625 -20.914062 5.5625 -20.796875 5 -20.796875 Z M 2.671875 0 L 2.671875 -18.578125 L 7.34375 -18.578125 L 7.34375 0 Z M 2.671875 0 "/></g></g></g><g fill="#ffffff" fill-opacity="1"><g transform="translate(302.285287, 347.444683)"><g><path d="M 2.671875 0 L 2.671875 -18.578125 L 7.15625 -18.578125 L 7.15625 -16.09375 L 7.515625 -16.015625 C 8.117188 -17.015625 8.828125 -17.75 9.640625 -18.21875 C 10.453125 -18.695312 11.492188 -18.9375 12.765625 -18.9375 C 14.171875 -18.9375 15.300781 -18.65625 16.15625 -18.09375 C 17.007812 -17.539062 17.632812 -16.734375 18.03125 -15.671875 L 18.375 -15.671875 C 18.945312 -16.773438 19.6875 -17.59375 20.59375 -18.125 C 21.5 -18.664062 22.625 -18.9375 23.96875 -18.9375 C 27.820312 -18.9375 29.75 -16.789062 29.75 -12.5 L 29.75 0 L 25.078125 0 L 25.078125 -11.90625 C 25.078125 -13 24.863281 -13.785156 24.4375 -14.265625 C 24.007812 -14.753906 23.328125 -15 22.390625 -15 C 19.828125 -15 18.546875 -13.285156 18.546875 -9.859375 L 18.546875 0 L 13.875 0 L 13.875 -11.90625 C 13.875 -13 13.65625 -13.785156 13.21875 -14.265625 C 12.789062 -14.753906 12.109375 -15 11.171875 -15 C 9.960938 -15 9.019531 -14.59375 8.34375 -13.78125 C 7.675781 -12.976562 7.34375 -11.703125 7.34375 -9.953125 L 7.34375 0 Z M 2.671875 0 "/></g></g></g></svg>